<?xml version="1.0" encoding="utf-8" standalone="no"?>
<!DOCTYPE svg PUBLIC "-//W3C//DTD SVG 1.1//EN"
  "http://www.w3.org/Graphics/SVG/1.1/DTD/svg11.dtd">
<svg xmlns:xlink="http://www.w3.org/1999/xlink" width="864pt" height="864pt" viewBox="0 0 864 864" xmlns="http://www.w3.org/2000/svg" version="1.1">
 <metadata>
  <rdf:RDF xmlns:dc="http://purl.org/dc/elements/1.1/" xmlns:cc="http://creativecommons.org/ns#" xmlns:rdf="http://www.w3.org/1999/02/22-rdf-syntax-ns#">
   <cc:Work>
    <dc:type rdf:resource="http://purl.org/dc/dcmitype/StillImage"/>
    <dc:date>2023-06-16T15:36:42.466804</dc:date>
    <dc:format>image/svg+xml</dc:format>
    <dc:creator>
     <cc:Agent>
      <dc:title>Matplotlib v3.5.1, https://matplotlib.org/</dc:title>
     </cc:Agent>
    </dc:creator>
   </cc:Work>
  </rdf:RDF>
 </metadata>
 <defs>
  <style type="text/css">*{stroke-linejoin: round; stroke-linecap: butt}</style>
 </defs>
 <g id="figure_1">
  <g id="patch_1">
   <path d="M 0 864 
L 864 864 
L 864 0 
L 0 0 
z
" style="fill: #ffffff"/>
  </g>
  <g id="axes_1">
   <g id="patch_2">
    <path d="M 83.72 414.13 
L 443.175941 414.13 
L 443.175941 75.334413 
L 83.72 75.334413 
z
" style="fill: #ffffff"/>
   </g>
   <g id="matplotlib.axis_1">
    <g id="xtick_1">
     <g id="line2d_1">
      <defs>
       <path id="m222f631634" d="M 0 0 
L 0 3.5 
" style="stroke: #000000; stroke-width: 0.8"/>
      </defs>
      <g>
       <use xlink:href="#m222f631634" x="165.414532" y="414.13" style="stroke: #000000; stroke-width: 0.8"/>
      </g>
     </g>
    </g>
    <g id="xtick_2">
     <g id="line2d_2">
      <g>
       <use xlink:href="#m222f631634" x="296.125783" y="414.13" style="stroke: #000000; stroke-width: 0.8"/>
      </g>
     </g>
    </g>
    <g id="xtick_3">
     <g id="line2d_3">
      <g>
       <use xlink:href="#m222f631634" x="426.837034" y="414.13" style="stroke: #000000; stroke-width: 0.8"/>
      </g>
     </g>
    </g>
   </g>
   <g id="matplotlib.axis_2">
    <g id="ytick_1">
     <g id="line2d_4">
      <defs>
       <path id="m437e2468f2" d="M 0 0 
L -3.5 0 
" style="stroke: #000000; stroke-width: 0.8"/>
      </defs>
      <g>
       <use xlink:href="#m437e2468f2" x="83.72" y="398.743528" style="stroke: #000000; stroke-width: 0.8"/>
      </g>
     </g>
     <g id="text_1">
      <!-- 0 -->
      <g transform="translate(62.7225 407.101809)scale(0.22 -0.22)">
       <defs>
        <path id="DejaVuSans-30" d="M 2034 4250 
Q 1547 4250 1301 3770 
Q 1056 3291 1056 2328 
Q 1056 1369 1301 889 
Q 1547 409 2034 409 
Q 2525 409 2770 889 
Q 3016 1369 3016 2328 
Q 3016 3291 2770 3770 
Q 2525 4250 2034 4250 
z
M 2034 4750 
Q 2819 4750 3233 4129 
Q 3647 3509 3647 2328 
Q 3647 1150 3233 529 
Q 2819 -91 2034 -91 
Q 1250 -91 836 529 
Q 422 1150 422 2328 
Q 422 3509 836 4129 
Q 1250 4750 2034 4750 
z
" transform="scale(0.015625)"/>
       </defs>
       <use xlink:href="#DejaVuSans-30"/>
      </g>
     </g>
    </g>
    <g id="ytick_2">
     <g id="line2d_5">
      <g>
       <use xlink:href="#m437e2468f2" x="83.72" y="319.679781" style="stroke: #000000; stroke-width: 0.8"/>
      </g>
     </g>
     <g id="text_2">
      <!-- 20 -->
      <g transform="translate(48.725 328.038063)scale(0.22 -0.22)">
       <defs>
        <path id="DejaVuSans-32" d="M 1228 531 
L 3431 531 
L 3431 0 
L 469 0 
L 469 531 
Q 828 903 1448 1529 
Q 2069 2156 2228 2338 
Q 2531 2678 2651 2914 
Q 2772 3150 2772 3378 
Q 2772 3750 2511 3984 
Q 2250 4219 1831 4219 
Q 1534 4219 1204 4116 
Q 875 4013 500 3803 
L 500 4441 
Q 881 4594 1212 4672 
Q 1544 4750 1819 4750 
Q 2544 4750 2975 4387 
Q 3406 4025 3406 3419 
Q 3406 3131 3298 2873 
Q 3191 2616 2906 2266 
Q 2828 2175 2409 1742 
Q 1991 1309 1228 531 
z
" transform="scale(0.015625)"/>
       </defs>
       <use xlink:href="#DejaVuSans-32"/>
       <use xlink:href="#DejaVuSans-30" x="63.623047"/>
      </g>
     </g>
    </g>
    <g id="ytick_3">
     <g id="line2d_6">
      <g>
       <use xlink:href="#m437e2468f2" x="83.72" y="240.616035" style="stroke: #000000; stroke-width: 0.8"/>
      </g>
     </g>
     <g id="text_3">
      <!-- 40 -->
      <g transform="translate(48.725 248.974316)scale(0.22 -0.22)">
       <defs>
        <path id="DejaVuSans-34" d="M 2419 4116 
L 825 1625 
L 2419 1625 
L 2419 4116 
z
M 2253 4666 
L 3047 4666 
L 3047 1625 
L 3713 1625 
L 3713 1100 
L 3047 1100 
L 3047 0 
L 2419 0 
L 2419 1100 
L 313 1100 
L 313 1709 
L 2253 4666 
z
" transform="scale(0.015625)"/>
       </defs>
       <use xlink:href="#DejaVuSans-34"/>
       <use xlink:href="#DejaVuSans-30" x="63.623047"/>
      </g>
     </g>
    </g>
    <g id="ytick_4">
     <g id="line2d_7">
      <g>
       <use xlink:href="#m437e2468f2" x="83.72" y="161.552289" style="stroke: #000000; stroke-width: 0.8"/>
      </g>
     </g>
     <g id="text_4">
      <!-- 60 -->
      <g transform="translate(48.725 169.91057)scale(0.22 -0.22)">
       <defs>
        <path id="DejaVuSans-36" d="M 2113 2584 
Q 1688 2584 1439 2293 
Q 1191 2003 1191 1497 
Q 1191 994 1439 701 
Q 1688 409 2113 409 
Q 2538 409 2786 701 
Q 3034 994 3034 1497 
Q 3034 2003 2786 2293 
Q 2538 2584 2113 2584 
z
M 3366 4563 
L 3366 3988 
Q 3128 4100 2886 4159 
Q 2644 4219 2406 4219 
Q 1781 4219 1451 3797 
Q 1122 3375 1075 2522 
Q 1259 2794 1537 2939 
Q 1816 3084 2150 3084 
Q 2853 3084 3261 2657 
Q 3669 2231 3669 1497 
Q 3669 778 3244 343 
Q 2819 -91 2113 -91 
Q 1303 -91 875 529 
Q 447 1150 447 2328 
Q 447 3434 972 4092 
Q 1497 4750 2381 4750 
Q 2619 4750 2861 4703 
Q 3103 4656 3366 4563 
z
" transform="scale(0.015625)"/>
       </defs>
       <use xlink:href="#DejaVuSans-36"/>
       <use xlink:href="#DejaVuSans-30" x="63.623047"/>
      </g>
     </g>
    </g>
    <g id="ytick_5">
     <g id="line2d_8">
      <g>
       <use xlink:href="#m437e2468f2" x="83.72" y="82.488542" style="stroke: #000000; stroke-width: 0.8"/>
      </g>
     </g>
     <g id="text_5">
      <!-- 80 -->
      <g transform="translate(48.725 90.846824)scale(0.22 -0.22)">
       <defs>
        <path id="DejaVuSans-38" d="M 2034 2216 
Q 1584 2216 1326 1975 
Q 1069 1734 1069 1313 
Q 1069 891 1326 650 
Q 1584 409 2034 409 
Q 2484 409 2743 651 
Q 3003 894 3003 1313 
Q 3003 1734 2745 1975 
Q 2488 2216 2034 2216 
z
M 1403 2484 
Q 997 2584 770 2862 
Q 544 3141 544 3541 
Q 544 4100 942 4425 
Q 1341 4750 2034 4750 
Q 2731 4750 3128 4425 
Q 3525 4100 3525 3541 
Q 3525 3141 3298 2862 
Q 3072 2584 2669 2484 
Q 3125 2378 3379 2068 
Q 3634 1759 3634 1313 
Q 3634 634 3220 271 
Q 2806 -91 2034 -91 
Q 1263 -91 848 271 
Q 434 634 434 1313 
Q 434 1759 690 2068 
Q 947 2378 1403 2484 
z
M 1172 3481 
Q 1172 3119 1398 2916 
Q 1625 2713 2034 2713 
Q 2441 2713 2670 2916 
Q 2900 3119 2900 3481 
Q 2900 3844 2670 4047 
Q 2441 4250 2034 4250 
Q 1625 4250 1398 4047 
Q 1172 3844 1172 3481 
z
" transform="scale(0.015625)"/>
       </defs>
       <use xlink:href="#DejaVuSans-38"/>
       <use xlink:href="#DejaVuSans-30" x="63.623047"/>
      </g>
     </g>
    </g>
    <g id="text_6">
     <!-- % pMEK -->
     <g transform="translate(40.149688 289.3183)rotate(-90)scale(0.22 -0.22)">
      <defs>
       <path id="DejaVuSans-25" d="M 4653 2053 
Q 4381 2053 4226 1822 
Q 4072 1591 4072 1178 
Q 4072 772 4226 539 
Q 4381 306 4653 306 
Q 4919 306 5073 539 
Q 5228 772 5228 1178 
Q 5228 1588 5073 1820 
Q 4919 2053 4653 2053 
z
M 4653 2450 
Q 5147 2450 5437 2106 
Q 5728 1763 5728 1178 
Q 5728 594 5436 251 
Q 5144 -91 4653 -91 
Q 4153 -91 3862 251 
Q 3572 594 3572 1178 
Q 3572 1766 3864 2108 
Q 4156 2450 4653 2450 
z
M 1428 4353 
Q 1159 4353 1004 4120 
Q 850 3888 850 3481 
Q 850 3069 1003 2837 
Q 1156 2606 1428 2606 
Q 1700 2606 1854 2837 
Q 2009 3069 2009 3481 
Q 2009 3884 1853 4118 
Q 1697 4353 1428 4353 
z
M 4250 4750 
L 4750 4750 
L 1831 -91 
L 1331 -91 
L 4250 4750 
z
M 1428 4750 
Q 1922 4750 2215 4408 
Q 2509 4066 2509 3481 
Q 2509 2891 2217 2550 
Q 1925 2209 1428 2209 
Q 931 2209 642 2551 
Q 353 2894 353 3481 
Q 353 4063 643 4406 
Q 934 4750 1428 4750 
z
" transform="scale(0.015625)"/>
       <path id="DejaVuSans-20" transform="scale(0.015625)"/>
       <path id="DejaVuSans-70" d="M 1159 525 
L 1159 -1331 
L 581 -1331 
L 581 3500 
L 1159 3500 
L 1159 2969 
Q 1341 3281 1617 3432 
Q 1894 3584 2278 3584 
Q 2916 3584 3314 3078 
Q 3713 2572 3713 1747 
Q 3713 922 3314 415 
Q 2916 -91 2278 -91 
Q 1894 -91 1617 61 
Q 1341 213 1159 525 
z
M 3116 1747 
Q 3116 2381 2855 2742 
Q 2594 3103 2138 3103 
Q 1681 3103 1420 2742 
Q 1159 2381 1159 1747 
Q 1159 1113 1420 752 
Q 1681 391 2138 391 
Q 2594 391 2855 752 
Q 3116 1113 3116 1747 
z
" transform="scale(0.015625)"/>
       <path id="DejaVuSans-4d" d="M 628 4666 
L 1569 4666 
L 2759 1491 
L 3956 4666 
L 4897 4666 
L 4897 0 
L 4281 0 
L 4281 4097 
L 3078 897 
L 2444 897 
L 1241 4097 
L 1241 0 
L 628 0 
L 628 4666 
z
" transform="scale(0.015625)"/>
       <path id="DejaVuSans-45" d="M 628 4666 
L 3578 4666 
L 3578 4134 
L 1259 4134 
L 1259 2753 
L 3481 2753 
L 3481 2222 
L 1259 2222 
L 1259 531 
L 3634 531 
L 3634 0 
L 628 0 
L 628 4666 
z
" transform="scale(0.015625)"/>
       <path id="DejaVuSans-4b" d="M 628 4666 
L 1259 4666 
L 1259 2694 
L 3353 4666 
L 4166 4666 
L 1850 2491 
L 4331 0 
L 3500 0 
L 1259 2247 
L 1259 0 
L 628 0 
L 628 4666 
z
" transform="scale(0.015625)"/>
      </defs>
      <use xlink:href="#DejaVuSans-25"/>
      <use xlink:href="#DejaVuSans-20" x="95.019531"/>
      <use xlink:href="#DejaVuSans-70" x="126.806641"/>
      <use xlink:href="#DejaVuSans-4d" x="190.283203"/>
      <use xlink:href="#DejaVuSans-45" x="276.5625"/>
      <use xlink:href="#DejaVuSans-4b" x="339.746094"/>
     </g>
    </g>
   </g>
   <g id="line2d_9">
    <path d="M -1 94.897456 
L 100.058906 94.89745 
L 140.906172 94.885392 
L 181.753438 94.836943 
L 222.600704 94.666657 
L 263.44797 94.248112 
L 304.295236 93.49684 
L 345.142502 92.232794 
L 385.989768 91.195268 
L 426.837034 90.734212 
" clip-path="url(#p9686b68e05)" style="fill: none; stroke: #ff0000; stroke-width: 1.5; stroke-linecap: square"/>
   </g>
   <g id="line2d_10">
    <path d="M -1 132.861396 
L 100.058906 132.861392 
L 140.906172 132.854357 
L 181.753438 132.826614 
L 222.600704 132.730975 
L 263.44797 132.50391 
L 304.295236 132.054261 
L 345.142502 131.33376 
L 385.989768 130.762634 
L 426.837034 130.520329 
" clip-path="url(#p9686b68e05)" style="fill: none; stroke: #e40000; stroke-width: 1.5; stroke-linecap: square"/>
   </g>
   <g id="line2d_11">
    <path d="M -1 141.910948 
L 100.058906 141.910945 
L 140.906172 141.905069 
L 181.753438 141.881179 
L 222.600704 141.800384 
L 263.44797 141.611898 
L 304.295236 141.241214 
L 345.142502 140.681532 
L 385.989768 140.261692 
L 426.837034 140.089896 
" clip-path="url(#p9686b68e05)" style="fill: none; stroke: #c90000; stroke-width: 1.5; stroke-linecap: square"/>
   </g>
   <g id="line2d_12">
    <path d="M -1 147.594133 
L 100.058906 147.594131 
L 140.906172 147.589793 
L 181.753438 147.57254 
L 222.600704 147.514459 
L 263.44797 147.380938 
L 304.295236 147.118959 
L 345.142502 146.738607 
L 385.989768 146.463282 
L 426.837034 146.353312 
" clip-path="url(#p9686b68e05)" style="fill: none; stroke: #ae0000; stroke-width: 1.5; stroke-linecap: square"/>
   </g>
   <g id="line2d_13">
    <path d="M -1 164.658732 
L 100.058906 164.658731 
L 140.906172 164.655493 
L 181.753438 164.642714 
L 222.600704 164.600318 
L 263.44797 164.504526 
L 304.295236 164.309795 
L 345.142502 164.041153 
L 385.989768 163.854041 
L 426.837034 163.781547 
" clip-path="url(#p9686b68e05)" style="fill: none; stroke: #940000; stroke-width: 1.5; stroke-linecap: square"/>
   </g>
   <g id="line2d_14">
    <path d="M -1 216.525811 
L 100.058906 216.52581 
L 140.906172 216.522933 
L 181.753438 216.511755 
L 222.600704 216.476115 
L 263.44797 216.396612 
L 304.295236 216.213522 
L 345.142502 215.993043 
L 385.989768 215.853402 
L 426.837034 215.803201 
" clip-path="url(#p9686b68e05)" style="fill: none; stroke: #6b0000; stroke-width: 1.5; stroke-linecap: square"/>
   </g>
   <g id="line2d_15">
    <path d="M -1 303.836278 
L 100.058906 303.836277 
L 140.906172 303.834201 
L 181.753438 303.826276 
L 222.600704 303.800481 
L 263.44797 303.722806 
L 304.295236 303.589013 
L 345.142502 303.457893 
L 385.989768 303.392151 
L 426.837034 303.3717 
" clip-path="url(#p9686b68e05)" style="fill: none; stroke: #510000; stroke-width: 1.5; stroke-linecap: square"/>
   </g>
   <g id="line2d_16">
    <path d="M -1 367.096988 
L 100.058906 367.096987 
L 140.906172 367.095655 
L 181.753438 367.090703 
L 222.600704 367.076329 
L 263.44797 367.046708 
L 304.295236 367.005665 
L 345.142502 366.976638 
L 385.989768 366.965775 
L 426.837034 366.962817 
" clip-path="url(#p9686b68e05)" style="fill: none; stroke: #360000; stroke-width: 1.5; stroke-linecap: square"/>
   </g>
   <g id="line2d_17">
    <path d="M -1 390.264118 
L 100.058906 390.264118 
L 140.906172 390.263825 
L 181.753438 390.262762 
L 222.600704 390.259898 
L 263.44797 390.254868 
L 304.295236 390.249532 
L 345.142502 390.246687 
L 385.989768 390.245785 
L 426.837034 390.245553 
" clip-path="url(#p9686b68e05)" style="fill: none; stroke: #1b0000; stroke-width: 1.5; stroke-linecap: square"/>
   </g>
   <g id="line2d_18">
    <path d="M -1 396.499449 
L 100.058906 396.499449 
L 140.906172 396.499413 
L 181.753438 396.499286 
L 222.600704 396.498962 
L 263.44797 396.498454 
L 304.295236 396.497989 
L 345.142502 396.497769 
L 385.989768 396.497703 
L 426.837034 396.497686 
" clip-path="url(#p9686b68e05)" style="fill: none; stroke: #000000; stroke-width: 1.5; stroke-linecap: square"/>
   </g>
   <g id="patch_3">
    <path d="M 83.72 414.13 
L 83.72 75.334413 
" style="fill: none; stroke: #000000; stroke-width: 0.8; stroke-linejoin: miter; stroke-linecap: square"/>
   </g>
   <g id="patch_4">
    <path d="M 83.72 414.13 
L 443.175941 414.13 
" style="fill: none; stroke: #000000; stroke-width: 0.8; stroke-linejoin: miter; stroke-linecap: square"/>
   </g>
  </g>
  <g id="axes_2">
   <g id="patch_5">
    <path d="M 475.61 414.13 
L 835.065941 414.13 
L 835.065941 75.334413 
L 475.61 75.334413 
z
" style="fill: #ffffff"/>
   </g>
   <g id="matplotlib.axis_3">
    <g id="xtick_4">
     <g id="line2d_19">
      <g>
       <use xlink:href="#m222f631634" x="557.304532" y="414.13" style="stroke: #000000; stroke-width: 0.8"/>
      </g>
     </g>
    </g>
    <g id="xtick_5">
     <g id="line2d_20">
      <g>
       <use xlink:href="#m222f631634" x="688.015783" y="414.13" style="stroke: #000000; stroke-width: 0.8"/>
      </g>
     </g>
    </g>
    <g id="xtick_6">
     <g id="line2d_21">
      <g>
       <use xlink:href="#m222f631634" x="818.727034" y="414.13" style="stroke: #000000; stroke-width: 0.8"/>
      </g>
     </g>
    </g>
   </g>
   <g id="matplotlib.axis_4">
    <g id="ytick_6">
     <g id="line2d_22">
      <g>
       <use xlink:href="#m437e2468f2" x="475.61" y="398.743528" style="stroke: #000000; stroke-width: 0.8"/>
      </g>
     </g>
    </g>
    <g id="ytick_7">
     <g id="line2d_23">
      <g>
       <use xlink:href="#m437e2468f2" x="475.61" y="319.679781" style="stroke: #000000; stroke-width: 0.8"/>
      </g>
     </g>
    </g>
    <g id="ytick_8">
     <g id="line2d_24">
      <g>
       <use xlink:href="#m437e2468f2" x="475.61" y="240.616035" style="stroke: #000000; stroke-width: 0.8"/>
      </g>
     </g>
    </g>
    <g id="ytick_9">
     <g id="line2d_25">
      <g>
       <use xlink:href="#m437e2468f2" x="475.61" y="161.552289" style="stroke: #000000; stroke-width: 0.8"/>
      </g>
     </g>
    </g>
    <g id="ytick_10">
     <g id="line2d_26">
      <g>
       <use xlink:href="#m437e2468f2" x="475.61" y="82.488542" style="stroke: #000000; stroke-width: 0.8"/>
      </g>
     </g>
    </g>
   </g>
   <g id="line2d_27">
    <path d="M -1 240.230846 
L 491.948906 240.229001 
L 532.796172 239.461941 
L 573.643438 236.470247 
L 614.490704 226.657702 
L 655.33797 202.784345 
L 696.185236 152.586873 
L 737.032502 110.171686 
L 777.879768 95.653395 
L 818.727034 91.802165 
" clip-path="url(#p982c04f535)" style="fill: none; stroke: #ff0000; stroke-width: 1.5; stroke-linecap: square"/>
   </g>
   <g id="line2d_28">
    <path d="M -1 210.514928 
L 491.948906 210.513687 
L 532.796172 209.998886 
L 573.643438 207.98588 
L 614.490704 201.440413 
L 655.33797 186.51655 
L 696.185236 158.92542 
L 737.032502 138.976608 
L 777.879768 132.643709 
L 818.727034 130.970044 
" clip-path="url(#p982c04f535)" style="fill: none; stroke: #e40000; stroke-width: 1.5; stroke-linecap: square"/>
   </g>
   <g id="line2d_29">
    <path d="M -1 186.323921 
L 491.948906 186.323151 
L 532.796172 186.003492 
L 573.643438 184.753799 
L 614.490704 180.667005 
L 655.33797 171.542551 
L 696.185236 155.653068 
L 737.032502 144.588716 
L 777.879768 141.20187 
L 818.727034 140.312896 
" clip-path="url(#p982c04f535)" style="fill: none; stroke: #c90000; stroke-width: 1.5; stroke-linecap: square"/>
   </g>
   <g id="line2d_30">
    <path d="M -1 171.705822 
L 491.948906 171.705393 
L 532.796172 171.526548 
L 573.643438 170.82396 
L 614.490704 168.513933 
L 655.33797 163.382286 
L 696.185236 154.671445 
L 737.032502 148.715017 
L 777.879768 146.929481 
L 818.727034 146.463019 
" clip-path="url(#p982c04f535)" style="fill: none; stroke: #ae0000; stroke-width: 1.5; stroke-linecap: square"/>
   </g>
   <g id="line2d_31">
    <path d="M -1 179.212773 
L 491.948906 179.212504 
L 532.796172 179.100265 
L 573.643438 178.660592 
L 614.490704 177.223628 
L 655.33797 174.063899 
L 696.185236 168.644501 
L 737.032502 165.154288 
L 777.879768 164.113708 
L 818.727034 163.842398 
" clip-path="url(#p982c04f535)" style="fill: none; stroke: #940000; stroke-width: 1.5; stroke-linecap: square"/>
   </g>
   <g id="line2d_32">
    <path d="M -1 226.787193 
L 491.948906 226.78698 
L 532.796172 226.699094 
L 573.643438 226.358922 
L 614.490704 225.287258 
L 655.33797 222.957007 
L 696.185236 218.846977 
L 737.032502 216.668232 
L 777.879768 216.011376 
L 818.727034 215.840992 
" clip-path="url(#p982c04f535)" style="fill: none; stroke: #6b0000; stroke-width: 1.5; stroke-linecap: square"/>
   </g>
   <g id="line2d_33">
    <path d="M -1 308.971824 
L 491.948906 308.971688 
L 532.796172 308.915398 
L 573.643438 308.700735 
L 614.490704 308.008715 
L 655.33797 306.253916 
L 696.185236 304.500868 
L 737.032502 303.695799 
L 777.879768 303.448989 
L 818.727034 303.385173 
" clip-path="url(#p982c04f535)" style="fill: none; stroke: #510000; stroke-width: 1.5; stroke-linecap: square"/>
   </g>
   <g id="line2d_34">
    <path d="M -1 367.914637 
L 491.948906 367.914587 
L 532.796172 367.894295 
L 573.643438 367.822042 
L 614.490704 367.638756 
L 655.33797 367.361266 
L 696.185236 367.120144 
L 737.032502 367.007517 
L 777.879768 366.973322 
L 818.727034 366.96462 
" clip-path="url(#p982c04f535)" style="fill: none; stroke: #360000; stroke-width: 1.5; stroke-linecap: square"/>
   </g>
   <g id="line2d_35">
    <path d="M -1 390.321562 
L 491.948906 390.321558 
L 532.796172 390.319873 
L 573.643438 390.313942 
L 614.490704 390.299222 
L 655.33797 390.277147 
L 696.185236 390.257882 
L 737.032502 390.249 
L 777.879768 390.246357 
L 818.727034 390.24569 
" clip-path="url(#p982c04f535)" style="fill: none; stroke: #1b0000; stroke-width: 1.5; stroke-linecap: square"/>
   </g>
   <g id="line2d_36">
    <path d="M -1 396.503293 
L 491.948906 396.503293 
L 532.796172 396.503166 
L 573.643438 396.502719 
L 614.490704 396.501618 
L 655.33797 396.499982 
L 696.185236 396.498572 
L 737.032502 396.497932 
L 777.879768 396.497743 
L 818.727034 396.497696 
" clip-path="url(#p982c04f535)" style="fill: none; stroke: #000000; stroke-width: 1.5; stroke-linecap: square"/>
   </g>
   <g id="patch_6">
    <path d="M 475.61 414.13 
L 475.61 75.334413 
" style="fill: none; stroke: #000000; stroke-width: 0.8; stroke-linejoin: miter; stroke-linecap: square"/>
   </g>
   <g id="patch_7">
    <path d="M 475.61 414.13 
L 835.065941 414.13 
" style="fill: none; stroke: #000000; stroke-width: 0.8; stroke-linejoin: miter; stroke-linecap: square"/>
   </g>
  </g>
  <g id="axes_3">
   <g id="patch_8">
    <path d="M 83.72 782.08 
L 443.175941 782.08 
L 443.175941 443.284413 
L 83.72 443.284413 
z
" style="fill: #ffffff"/>
   </g>
   <g id="matplotlib.axis_5">
    <g id="xtick_7">
     <g id="line2d_37">
      <g>
       <use xlink:href="#m222f631634" x="165.414532" y="782.08" style="stroke: #000000; stroke-width: 0.8"/>
      </g>
     </g>
     <g id="text_7">
      <!-- $\mathdefault{10^{-3}}$ -->
      <g transform="translate(139.564532 805.796562)scale(0.22 -0.22)">
       <defs>
        <path id="DejaVuSans-31" d="M 794 531 
L 1825 531 
L 1825 4091 
L 703 3866 
L 703 4441 
L 1819 4666 
L 2450 4666 
L 2450 531 
L 3481 531 
L 3481 0 
L 794 0 
L 794 531 
z
" transform="scale(0.015625)"/>
        <path id="DejaVuSans-2212" d="M 678 2272 
L 4684 2272 
L 4684 1741 
L 678 1741 
L 678 2272 
z
" transform="scale(0.015625)"/>
        <path id="DejaVuSans-33" d="M 2597 2516 
Q 3050 2419 3304 2112 
Q 3559 1806 3559 1356 
Q 3559 666 3084 287 
Q 2609 -91 1734 -91 
Q 1441 -91 1130 -33 
Q 819 25 488 141 
L 488 750 
Q 750 597 1062 519 
Q 1375 441 1716 441 
Q 2309 441 2620 675 
Q 2931 909 2931 1356 
Q 2931 1769 2642 2001 
Q 2353 2234 1838 2234 
L 1294 2234 
L 1294 2753 
L 1863 2753 
Q 2328 2753 2575 2939 
Q 2822 3125 2822 3475 
Q 2822 3834 2567 4026 
Q 2313 4219 1838 4219 
Q 1578 4219 1281 4162 
Q 984 4106 628 3988 
L 628 4550 
Q 988 4650 1302 4700 
Q 1616 4750 1894 4750 
Q 2613 4750 3031 4423 
Q 3450 4097 3450 3541 
Q 3450 3153 3228 2886 
Q 3006 2619 2597 2516 
z
" transform="scale(0.015625)"/>
       </defs>
       <use xlink:href="#DejaVuSans-31" transform="translate(0 0.765625)"/>
       <use xlink:href="#DejaVuSans-30" transform="translate(63.623047 0.765625)"/>
       <use xlink:href="#DejaVuSans-2212" transform="translate(128.203125 39.046875)scale(0.7)"/>
       <use xlink:href="#DejaVuSans-33" transform="translate(186.855469 39.046875)scale(0.7)"/>
      </g>
     </g>
    </g>
    <g id="xtick_8">
     <g id="line2d_38">
      <g>
       <use xlink:href="#m222f631634" x="296.125783" y="782.08" style="stroke: #000000; stroke-width: 0.8"/>
      </g>
     </g>
     <g id="text_8">
      <!-- $\mathdefault{10^{-1}}$ -->
      <g transform="translate(270.275783 805.796562)scale(0.22 -0.22)">
       <use xlink:href="#DejaVuSans-31" transform="translate(0 0.684375)"/>
       <use xlink:href="#DejaVuSans-30" transform="translate(63.623047 0.684375)"/>
       <use xlink:href="#DejaVuSans-2212" transform="translate(128.203125 38.965625)scale(0.7)"/>
       <use xlink:href="#DejaVuSans-31" transform="translate(186.855469 38.965625)scale(0.7)"/>
      </g>
     </g>
    </g>
    <g id="xtick_9">
     <g id="line2d_39">
      <g>
       <use xlink:href="#m222f631634" x="426.837034" y="782.08" style="stroke: #000000; stroke-width: 0.8"/>
      </g>
     </g>
     <g id="text_9">
      <!-- $\mathdefault{10^{1}}$ -->
      <g transform="translate(407.477034 805.796562)scale(0.22 -0.22)">
       <use xlink:href="#DejaVuSans-31" transform="translate(0 0.684375)"/>
       <use xlink:href="#DejaVuSans-30" transform="translate(63.623047 0.684375)"/>
       <use xlink:href="#DejaVuSans-31" transform="translate(128.203125 38.965625)scale(0.7)"/>
      </g>
     </g>
    </g>
    <g id="text_10">
     <!-- Cobimetinib ($\mu$M) -->
     <g transform="translate(168.51797 831.091875)scale(0.22 -0.22)">
      <defs>
       <path id="DejaVuSans-43" d="M 4122 4306 
L 4122 3641 
Q 3803 3938 3442 4084 
Q 3081 4231 2675 4231 
Q 1875 4231 1450 3742 
Q 1025 3253 1025 2328 
Q 1025 1406 1450 917 
Q 1875 428 2675 428 
Q 3081 428 3442 575 
Q 3803 722 4122 1019 
L 4122 359 
Q 3791 134 3420 21 
Q 3050 -91 2638 -91 
Q 1578 -91 968 557 
Q 359 1206 359 2328 
Q 359 3453 968 4101 
Q 1578 4750 2638 4750 
Q 3056 4750 3426 4639 
Q 3797 4528 4122 4306 
z
" transform="scale(0.015625)"/>
       <path id="DejaVuSans-6f" d="M 1959 3097 
Q 1497 3097 1228 2736 
Q 959 2375 959 1747 
Q 959 1119 1226 758 
Q 1494 397 1959 397 
Q 2419 397 2687 759 
Q 2956 1122 2956 1747 
Q 2956 2369 2687 2733 
Q 2419 3097 1959 3097 
z
M 1959 3584 
Q 2709 3584 3137 3096 
Q 3566 2609 3566 1747 
Q 3566 888 3137 398 
Q 2709 -91 1959 -91 
Q 1206 -91 779 398 
Q 353 888 353 1747 
Q 353 2609 779 3096 
Q 1206 3584 1959 3584 
z
" transform="scale(0.015625)"/>
       <path id="DejaVuSans-62" d="M 3116 1747 
Q 3116 2381 2855 2742 
Q 2594 3103 2138 3103 
Q 1681 3103 1420 2742 
Q 1159 2381 1159 1747 
Q 1159 1113 1420 752 
Q 1681 391 2138 391 
Q 2594 391 2855 752 
Q 3116 1113 3116 1747 
z
M 1159 2969 
Q 1341 3281 1617 3432 
Q 1894 3584 2278 3584 
Q 2916 3584 3314 3078 
Q 3713 2572 3713 1747 
Q 3713 922 3314 415 
Q 2916 -91 2278 -91 
Q 1894 -91 1617 61 
Q 1341 213 1159 525 
L 1159 0 
L 581 0 
L 581 4863 
L 1159 4863 
L 1159 2969 
z
" transform="scale(0.015625)"/>
       <path id="DejaVuSans-69" d="M 603 3500 
L 1178 3500 
L 1178 0 
L 603 0 
L 603 3500 
z
M 603 4863 
L 1178 4863 
L 1178 4134 
L 603 4134 
L 603 4863 
z
" transform="scale(0.015625)"/>
       <path id="DejaVuSans-6d" d="M 3328 2828 
Q 3544 3216 3844 3400 
Q 4144 3584 4550 3584 
Q 5097 3584 5394 3201 
Q 5691 2819 5691 2113 
L 5691 0 
L 5113 0 
L 5113 2094 
Q 5113 2597 4934 2840 
Q 4756 3084 4391 3084 
Q 3944 3084 3684 2787 
Q 3425 2491 3425 1978 
L 3425 0 
L 2847 0 
L 2847 2094 
Q 2847 2600 2669 2842 
Q 2491 3084 2119 3084 
Q 1678 3084 1418 2786 
Q 1159 2488 1159 1978 
L 1159 0 
L 581 0 
L 581 3500 
L 1159 3500 
L 1159 2956 
Q 1356 3278 1631 3431 
Q 1906 3584 2284 3584 
Q 2666 3584 2933 3390 
Q 3200 3197 3328 2828 
z
" transform="scale(0.015625)"/>
       <path id="DejaVuSans-65" d="M 3597 1894 
L 3597 1613 
L 953 1613 
Q 991 1019 1311 708 
Q 1631 397 2203 397 
Q 2534 397 2845 478 
Q 3156 559 3463 722 
L 3463 178 
Q 3153 47 2828 -22 
Q 2503 -91 2169 -91 
Q 1331 -91 842 396 
Q 353 884 353 1716 
Q 353 2575 817 3079 
Q 1281 3584 2069 3584 
Q 2775 3584 3186 3129 
Q 3597 2675 3597 1894 
z
M 3022 2063 
Q 3016 2534 2758 2815 
Q 2500 3097 2075 3097 
Q 1594 3097 1305 2825 
Q 1016 2553 972 2059 
L 3022 2063 
z
" transform="scale(0.015625)"/>
       <path id="DejaVuSans-74" d="M 1172 4494 
L 1172 3500 
L 2356 3500 
L 2356 3053 
L 1172 3053 
L 1172 1153 
Q 1172 725 1289 603 
Q 1406 481 1766 481 
L 2356 481 
L 2356 0 
L 1766 0 
Q 1100 0 847 248 
Q 594 497 594 1153 
L 594 3053 
L 172 3053 
L 172 3500 
L 594 3500 
L 594 4494 
L 1172 4494 
z
" transform="scale(0.015625)"/>
       <path id="DejaVuSans-6e" d="M 3513 2113 
L 3513 0 
L 2938 0 
L 2938 2094 
Q 2938 2591 2744 2837 
Q 2550 3084 2163 3084 
Q 1697 3084 1428 2787 
Q 1159 2491 1159 1978 
L 1159 0 
L 581 0 
L 581 3500 
L 1159 3500 
L 1159 2956 
Q 1366 3272 1645 3428 
Q 1925 3584 2291 3584 
Q 2894 3584 3203 3211 
Q 3513 2838 3513 2113 
z
" transform="scale(0.015625)"/>
       <path id="DejaVuSans-28" d="M 1984 4856 
Q 1566 4138 1362 3434 
Q 1159 2731 1159 2009 
Q 1159 1288 1364 580 
Q 1569 -128 1984 -844 
L 1484 -844 
Q 1016 -109 783 600 
Q 550 1309 550 2009 
Q 550 2706 781 3412 
Q 1013 4119 1484 4856 
L 1984 4856 
z
" transform="scale(0.015625)"/>
       <path id="DejaVuSans-Oblique-3bc" d="M -84 -1331 
L 856 3500 
L 1434 3500 
L 1009 1322 
Q 997 1256 987 1175 
Q 978 1094 978 1013 
Q 978 722 1161 565 
Q 1344 409 1684 409 
Q 2147 409 2431 671 
Q 2716 934 2816 1459 
L 3213 3500 
L 3788 3500 
L 3266 809 
Q 3253 750 3248 706 
Q 3244 663 3244 628 
Q 3244 531 3283 486 
Q 3322 441 3406 441 
Q 3438 441 3492 456 
Q 3547 472 3647 513 
L 3559 50 
Q 3422 -19 3297 -55 
Q 3172 -91 3053 -91 
Q 2847 -91 2730 40 
Q 2613 172 2613 403 
Q 2438 153 2195 31 
Q 1953 -91 1625 -91 
Q 1334 -91 1117 43 
Q 900 178 831 397 
L 494 -1331 
L -84 -1331 
z
" transform="scale(0.015625)"/>
       <path id="DejaVuSans-29" d="M 513 4856 
L 1013 4856 
Q 1481 4119 1714 3412 
Q 1947 2706 1947 2009 
Q 1947 1309 1714 600 
Q 1481 -109 1013 -844 
L 513 -844 
Q 928 -128 1133 580 
Q 1338 1288 1338 2009 
Q 1338 2731 1133 3434 
Q 928 4138 513 4856 
z
" transform="scale(0.015625)"/>
      </defs>
      <use xlink:href="#DejaVuSans-43" transform="translate(0 0.015625)"/>
      <use xlink:href="#DejaVuSans-6f" transform="translate(69.824219 0.015625)"/>
      <use xlink:href="#DejaVuSans-62" transform="translate(131.005859 0.015625)"/>
      <use xlink:href="#DejaVuSans-69" transform="translate(194.482422 0.015625)"/>
      <use xlink:href="#DejaVuSans-6d" transform="translate(222.265625 0.015625)"/>
      <use xlink:href="#DejaVuSans-65" transform="translate(319.677734 0.015625)"/>
      <use xlink:href="#DejaVuSans-74" transform="translate(381.201172 0.015625)"/>
      <use xlink:href="#DejaVuSans-69" transform="translate(420.410156 0.015625)"/>
      <use xlink:href="#DejaVuSans-6e" transform="translate(448.193359 0.015625)"/>
      <use xlink:href="#DejaVuSans-69" transform="translate(511.572266 0.015625)"/>
      <use xlink:href="#DejaVuSans-62" transform="translate(539.355469 0.015625)"/>
      <use xlink:href="#DejaVuSans-20" transform="translate(602.832031 0.015625)"/>
      <use xlink:href="#DejaVuSans-28" transform="translate(634.619141 0.015625)"/>
      <use xlink:href="#DejaVuSans-Oblique-3bc" transform="translate(673.632812 0.015625)"/>
      <use xlink:href="#DejaVuSans-4d" transform="translate(737.255859 0.015625)"/>
      <use xlink:href="#DejaVuSans-29" transform="translate(823.535156 0.015625)"/>
     </g>
    </g>
   </g>
   <g id="matplotlib.axis_6">
    <g id="ytick_11">
     <g id="line2d_40">
      <g>
       <use xlink:href="#m437e2468f2" x="83.72" y="766.693528" style="stroke: #000000; stroke-width: 0.8"/>
      </g>
     </g>
     <g id="text_11">
      <!-- 0 -->
      <g transform="translate(62.7225 775.051809)scale(0.22 -0.22)">
       <use xlink:href="#DejaVuSans-30"/>
      </g>
     </g>
    </g>
    <g id="ytick_12">
     <g id="line2d_41">
      <g>
       <use xlink:href="#m437e2468f2" x="83.72" y="687.629781" style="stroke: #000000; stroke-width: 0.8"/>
      </g>
     </g>
     <g id="text_12">
      <!-- 20 -->
      <g transform="translate(48.725 695.988063)scale(0.22 -0.22)">
       <use xlink:href="#DejaVuSans-32"/>
       <use xlink:href="#DejaVuSans-30" x="63.623047"/>
      </g>
     </g>
    </g>
    <g id="ytick_13">
     <g id="line2d_42">
      <g>
       <use xlink:href="#m437e2468f2" x="83.72" y="608.566035" style="stroke: #000000; stroke-width: 0.8"/>
      </g>
     </g>
     <g id="text_13">
      <!-- 40 -->
      <g transform="translate(48.725 616.924316)scale(0.22 -0.22)">
       <use xlink:href="#DejaVuSans-34"/>
       <use xlink:href="#DejaVuSans-30" x="63.623047"/>
      </g>
     </g>
    </g>
    <g id="ytick_14">
     <g id="line2d_43">
      <g>
       <use xlink:href="#m437e2468f2" x="83.72" y="529.502289" style="stroke: #000000; stroke-width: 0.8"/>
      </g>
     </g>
     <g id="text_14">
      <!-- 60 -->
      <g transform="translate(48.725 537.86057)scale(0.22 -0.22)">
       <use xlink:href="#DejaVuSans-36"/>
       <use xlink:href="#DejaVuSans-30" x="63.623047"/>
      </g>
     </g>
    </g>
    <g id="ytick_15">
     <g id="line2d_44">
      <g>
       <use xlink:href="#m437e2468f2" x="83.72" y="450.438542" style="stroke: #000000; stroke-width: 0.8"/>
      </g>
     </g>
     <g id="text_15">
      <!-- 80 -->
      <g transform="translate(48.725 458.796824)scale(0.22 -0.22)">
       <use xlink:href="#DejaVuSans-38"/>
       <use xlink:href="#DejaVuSans-30" x="63.623047"/>
      </g>
     </g>
    </g>
    <g id="text_16">
     <!-- % pERK -->
     <g transform="translate(40.149688 655.420644)rotate(-90)scale(0.22 -0.22)">
      <defs>
       <path id="DejaVuSans-52" d="M 2841 2188 
Q 3044 2119 3236 1894 
Q 3428 1669 3622 1275 
L 4263 0 
L 3584 0 
L 2988 1197 
Q 2756 1666 2539 1819 
Q 2322 1972 1947 1972 
L 1259 1972 
L 1259 0 
L 628 0 
L 628 4666 
L 2053 4666 
Q 2853 4666 3247 4331 
Q 3641 3997 3641 3322 
Q 3641 2881 3436 2590 
Q 3231 2300 2841 2188 
z
M 1259 4147 
L 1259 2491 
L 2053 2491 
Q 2509 2491 2742 2702 
Q 2975 2913 2975 3322 
Q 2975 3731 2742 3939 
Q 2509 4147 2053 4147 
L 1259 4147 
z
" transform="scale(0.015625)"/>
      </defs>
      <use xlink:href="#DejaVuSans-25"/>
      <use xlink:href="#DejaVuSans-20" x="95.019531"/>
      <use xlink:href="#DejaVuSans-70" x="126.806641"/>
      <use xlink:href="#DejaVuSans-45" x="190.283203"/>
      <use xlink:href="#DejaVuSans-52" x="253.466797"/>
      <use xlink:href="#DejaVuSans-4b" x="322.949219"/>
     </g>
    </g>
   </g>
   <g id="line2d_45">
    <path d="M -1 486.27182 
L 100.058906 486.272665 
L 140.906172 488.001456 
L 181.753438 494.924143 
L 222.600704 518.958846 
L 263.44797 575.950942 
L 304.295236 664.260917 
L 345.142502 737.79166 
L 385.989768 759.287524 
L 426.837034 764.880541 
" clip-path="url(#p46ae5cc8ea)" style="fill: none; stroke: #ff0000; stroke-width: 1.5; stroke-linecap: square"/>
   </g>
   <g id="line2d_46">
    <path d="M -1 502.125936 
L 100.058906 502.126808 
L 140.906172 503.903896 
L 181.753438 510.958048 
L 222.600704 534.79872 
L 263.44797 589.064148 
L 304.295236 677.11878 
L 345.142502 741.423845 
L 385.989768 760.223758 
L 426.837034 765.113183 
" clip-path="url(#p46ae5cc8ea)" style="fill: none; stroke: #e40000; stroke-width: 1.5; stroke-linecap: square"/>
   </g>
   <g id="line2d_47">
    <path d="M -1 506.138173 
L 100.058906 506.139049 
L 140.906172 507.924575 
L 181.753438 514.9956 
L 222.600704 538.732713 
L 263.44797 592.288572 
L 304.295236 680.218592 
L 345.142502 742.291643 
L 385.989768 760.449053 
L 426.837034 765.169202 
" clip-path="url(#p46ae5cc8ea)" style="fill: none; stroke: #c90000; stroke-width: 1.5; stroke-linecap: square"/>
   </g>
   <g id="line2d_48">
    <path d="M -1 508.708085 
L 100.058906 508.708964 
L 140.906172 510.499698 
L 181.753438 517.58103 
L 222.600704 541.250734 
L 263.44797 594.365461 
L 304.295236 682.208525 
L 345.142502 742.85404 
L 385.989768 760.596259 
L 426.837034 765.205881 
" clip-path="url(#p46ae5cc8ea)" style="fill: none; stroke: #ae0000; stroke-width: 1.5; stroke-linecap: square"/>
   </g>
   <g id="line2d_49">
    <path d="M -1 516.672659 
L 100.058906 516.673545 
L 140.906172 518.476513 
L 181.753438 525.573602 
L 222.600704 548.986278 
L 263.44797 600.718794 
L 304.295236 688.046841 
L 345.142502 744.460977 
L 385.989768 761.00958 
L 426.837034 765.307999 
" clip-path="url(#p46ae5cc8ea)" style="fill: none; stroke: #940000; stroke-width: 1.5; stroke-linecap: square"/>
   </g>
   <g id="line2d_50">
    <path d="M -1 543.566267 
L 100.058906 543.567159 
L 140.906172 545.37304 
L 181.753438 552.373124 
L 222.600704 574.535619 
L 263.44797 622.274487 
L 304.295236 705.628806 
L 345.142502 749.291963 
L 385.989768 762.250366 
L 426.837034 765.613318 
" clip-path="url(#p46ae5cc8ea)" style="fill: none; stroke: #6b0000; stroke-width: 1.5; stroke-linecap: square"/>
   </g>
   <g id="line2d_51">
    <path d="M -1 603.515639 
L 100.058906 603.516472 
L 140.906172 605.19423 
L 181.753438 611.571204 
L 222.600704 631.728798 
L 263.44797 683.577463 
L 304.295236 734.789514 
L 345.142502 757.489817 
L 385.989768 764.359127 
L 426.837034 766.129064 
" clip-path="url(#p46ae5cc8ea)" style="fill: none; stroke: #510000; stroke-width: 1.5; stroke-linecap: square"/>
   </g>
   <g id="line2d_52">
    <path d="M -1 698.939798 
L 100.058906 698.940559 
L 140.906172 700.443117 
L 181.753438 705.773556 
L 222.600704 719.149073 
L 263.44797 738.979485 
L 304.295236 755.817532 
L 345.142502 763.569597 
L 385.989768 765.910376 
L 426.837034 766.505097 
" clip-path="url(#p46ae5cc8ea)" style="fill: none; stroke: #360000; stroke-width: 1.5; stroke-linecap: square"/>
   </g>
   <g id="line2d_53">
    <path d="M -1 748.270356 
L 100.058906 748.270565 
L 140.906172 748.683287 
L 181.753438 750.134233 
L 222.600704 753.723705 
L 263.44797 759.075975 
L 304.295236 763.718176 
L 345.142502 765.850082 
L 385.989768 766.483541 
L 426.837034 766.643109 
" clip-path="url(#p46ae5cc8ea)" style="fill: none; stroke: #1b0000; stroke-width: 1.5; stroke-linecap: square"/>
   </g>
   <g id="line2d_54">
    <path d="M -1 761.683498 
L 100.058906 761.683556 
L 140.906172 761.797648 
L 181.753438 762.197701 
L 222.600704 763.182116 
L 263.44797 764.64274 
L 304.295236 765.899832 
L 345.142502 766.469955 
L 385.989768 766.63799 
L 426.837034 766.680201 
" clip-path="url(#p46ae5cc8ea)" style="fill: none; stroke: #000000; stroke-width: 1.5; stroke-linecap: square"/>
   </g>
   <g id="patch_9">
    <path d="M 83.72 782.08 
L 83.72 443.284413 
" style="fill: none; stroke: #000000; stroke-width: 0.8; stroke-linejoin: miter; stroke-linecap: square"/>
   </g>
   <g id="patch_10">
    <path d="M 83.72 782.08 
L 443.175941 782.08 
" style="fill: none; stroke: #000000; stroke-width: 0.8; stroke-linejoin: miter; stroke-linecap: square"/>
   </g>
  </g>
  <g id="axes_4">
   <g id="patch_11">
    <path d="M 475.61 782.08 
L 835.065941 782.08 
L 835.065941 443.284413 
L 475.61 443.284413 
z
" style="fill: #ffffff"/>
   </g>
   <g id="matplotlib.axis_7">
    <g id="xtick_10">
     <g id="line2d_55">
      <g>
       <use xlink:href="#m222f631634" x="557.304532" y="782.08" style="stroke: #000000; stroke-width: 0.8"/>
      </g>
     </g>
     <g id="text_17">
      <!-- $\mathdefault{10^{-3}}$ -->
      <g transform="translate(531.454532 805.796562)scale(0.22 -0.22)">
       <use xlink:href="#DejaVuSans-31" transform="translate(0 0.765625)"/>
       <use xlink:href="#DejaVuSans-30" transform="translate(63.623047 0.765625)"/>
       <use xlink:href="#DejaVuSans-2212" transform="translate(128.203125 39.046875)scale(0.7)"/>
       <use xlink:href="#DejaVuSans-33" transform="translate(186.855469 39.046875)scale(0.7)"/>
      </g>
     </g>
    </g>
    <g id="xtick_11">
     <g id="line2d_56">
      <g>
       <use xlink:href="#m222f631634" x="688.015783" y="782.08" style="stroke: #000000; stroke-width: 0.8"/>
      </g>
     </g>
     <g id="text_18">
      <!-- $\mathdefault{10^{-1}}$ -->
      <g transform="translate(662.165783 805.796562)scale(0.22 -0.22)">
       <use xlink:href="#DejaVuSans-31" transform="translate(0 0.684375)"/>
       <use xlink:href="#DejaVuSans-30" transform="translate(63.623047 0.684375)"/>
       <use xlink:href="#DejaVuSans-2212" transform="translate(128.203125 38.965625)scale(0.7)"/>
       <use xlink:href="#DejaVuSans-31" transform="translate(186.855469 38.965625)scale(0.7)"/>
      </g>
     </g>
    </g>
    <g id="xtick_12">
     <g id="line2d_57">
      <g>
       <use xlink:href="#m222f631634" x="818.727034" y="782.08" style="stroke: #000000; stroke-width: 0.8"/>
      </g>
     </g>
     <g id="text_19">
      <!-- $\mathdefault{10^{1}}$ -->
      <g transform="translate(799.367034 805.796562)scale(0.22 -0.22)">
       <use xlink:href="#DejaVuSans-31" transform="translate(0 0.684375)"/>
       <use xlink:href="#DejaVuSans-30" transform="translate(63.623047 0.684375)"/>
       <use xlink:href="#DejaVuSans-31" transform="translate(128.203125 38.965625)scale(0.7)"/>
      </g>
     </g>
    </g>
    <g id="text_20">
     <!-- Cobimetinib ($\mu$M) -->
     <g transform="translate(560.40797 831.091875)scale(0.22 -0.22)">
      <use xlink:href="#DejaVuSans-43" transform="translate(0 0.015625)"/>
      <use xlink:href="#DejaVuSans-6f" transform="translate(69.824219 0.015625)"/>
      <use xlink:href="#DejaVuSans-62" transform="translate(131.005859 0.015625)"/>
      <use xlink:href="#DejaVuSans-69" transform="translate(194.482422 0.015625)"/>
      <use xlink:href="#DejaVuSans-6d" transform="translate(222.265625 0.015625)"/>
      <use xlink:href="#DejaVuSans-65" transform="translate(319.677734 0.015625)"/>
      <use xlink:href="#DejaVuSans-74" transform="translate(381.201172 0.015625)"/>
      <use xlink:href="#DejaVuSans-69" transform="translate(420.410156 0.015625)"/>
      <use xlink:href="#DejaVuSans-6e" transform="translate(448.193359 0.015625)"/>
      <use xlink:href="#DejaVuSans-69" transform="translate(511.572266 0.015625)"/>
      <use xlink:href="#DejaVuSans-62" transform="translate(539.355469 0.015625)"/>
      <use xlink:href="#DejaVuSans-20" transform="translate(602.832031 0.015625)"/>
      <use xlink:href="#DejaVuSans-28" transform="translate(634.619141 0.015625)"/>
      <use xlink:href="#DejaVuSans-Oblique-3bc" transform="translate(673.632812 0.015625)"/>
      <use xlink:href="#DejaVuSans-4d" transform="translate(737.255859 0.015625)"/>
      <use xlink:href="#DejaVuSans-29" transform="translate(823.535156 0.015625)"/>
     </g>
    </g>
   </g>
   <g id="matplotlib.axis_8">
    <g id="ytick_16">
     <g id="line2d_58">
      <g>
       <use xlink:href="#m437e2468f2" x="475.61" y="766.693528" style="stroke: #000000; stroke-width: 0.8"/>
      </g>
     </g>
    </g>
    <g id="ytick_17">
     <g id="line2d_59">
      <g>
       <use xlink:href="#m437e2468f2" x="475.61" y="687.629781" style="stroke: #000000; stroke-width: 0.8"/>
      </g>
     </g>
    </g>
    <g id="ytick_18">
     <g id="line2d_60">
      <g>
       <use xlink:href="#m437e2468f2" x="475.61" y="608.566035" style="stroke: #000000; stroke-width: 0.8"/>
      </g>
     </g>
    </g>
    <g id="ytick_19">
     <g id="line2d_61">
      <g>
       <use xlink:href="#m437e2468f2" x="475.61" y="529.502289" style="stroke: #000000; stroke-width: 0.8"/>
      </g>
     </g>
    </g>
    <g id="ytick_20">
     <g id="line2d_62">
      <g>
       <use xlink:href="#m437e2468f2" x="475.61" y="450.438542" style="stroke: #000000; stroke-width: 0.8"/>
      </g>
     </g>
    </g>
   </g>
   <g id="line2d_63">
    <path d="M -1 557.542646 
L 491.948906 557.545829 
L 532.796172 558.86518 
L 573.643438 563.953676 
L 614.490704 580.055248 
L 655.33797 616.209699 
L 696.185236 684.097378 
L 737.032502 739.458971 
L 777.879768 759.392842 
L 818.727034 764.88678 
" clip-path="url(#p1322c0a05a)" style="fill: none; stroke: #ff0000; stroke-width: 1.5; stroke-linecap: square"/>
   </g>
   <g id="line2d_64">
    <path d="M -1 540.207451 
L 491.948906 540.211124 
L 532.796172 541.738777 
L 573.643438 547.677426 
L 614.490704 566.785338 
L 655.33797 609.359262 
L 696.185236 686.22812 
L 737.032502 742.13353 
L 777.879768 760.268355 
L 818.727034 765.115815 
" clip-path="url(#p1322c0a05a)" style="fill: none; stroke: #e40000; stroke-width: 1.5; stroke-linecap: square"/>
   </g>
   <g id="line2d_65">
    <path d="M -1 527.368246 
L 491.948906 527.372207 
L 532.796172 529.022255 
L 573.643438 535.481486 
L 614.490704 556.549902 
L 655.33797 603.423392 
L 696.185236 685.109439 
L 737.032502 742.654463 
L 777.879768 760.471364 
L 818.727034 765.170508 
" clip-path="url(#p1322c0a05a)" style="fill: none; stroke: #c90000; stroke-width: 1.5; stroke-linecap: square"/>
   </g>
   <g id="line2d_66">
    <path d="M -1 520.073581 
L 491.948906 520.077709 
L 532.796172 521.798695 
L 573.643438 528.560465 
L 614.490704 550.804774 
L 655.33797 600.299247 
L 696.185236 684.773312 
L 737.032502 743.037579 
L 777.879768 760.607329 
L 818.727034 765.206524 
" clip-path="url(#p1322c0a05a)" style="fill: none; stroke: #ae0000; stroke-width: 1.5; stroke-linecap: square"/>
   </g>
   <g id="line2d_67">
    <path d="M -1 523.779092 
L 491.948906 523.783304 
L 532.796172 525.538243 
L 573.643438 532.418762 
L 614.490704 554.898875 
L 655.33797 604.390465 
L 696.185236 689.519737 
L 737.032502 744.564372 
L 777.879768 761.015757 
L 818.727034 765.308356 
" clip-path="url(#p1322c0a05a)" style="fill: none; stroke: #940000; stroke-width: 1.5; stroke-linecap: square"/>
   </g>
   <g id="line2d_68">
    <path d="M -1 549.461082 
L 491.948906 549.465298 
L 532.796172 551.214887 
L 573.643438 557.976788 
L 614.490704 579.261012 
L 655.33797 625.424456 
L 696.185236 706.516475 
L 737.032502 749.354858 
L 777.879768 762.254148 
L 818.727034 765.61354 
" clip-path="url(#p1322c0a05a)" style="fill: none; stroke: #6b0000; stroke-width: 1.5; stroke-linecap: square"/>
   </g>
   <g id="line2d_69">
    <path d="M -1 608.096357 
L 491.948906 608.100298 
L 532.796172 609.72677 
L 573.643438 615.922729 
L 614.490704 635.824204 
L 655.33797 685.811047 
L 696.185236 735.091227 
L 737.032502 757.512318 
L 777.879768 764.360505 
L 818.727034 766.129143 
" clip-path="url(#p1322c0a05a)" style="fill: none; stroke: #510000; stroke-width: 1.5; stroke-linecap: square"/>
   </g>
   <g id="line2d_70">
    <path d="M -1 700.692413 
L 491.948906 700.695932 
L 532.796172 702.121149 
L 573.643438 707.18868 
L 614.490704 719.994728 
L 655.33797 739.250496 
L 696.185236 755.855918 
L 737.032502 763.572599 
L 777.879768 765.910561 
L 818.727034 766.505108 
" clip-path="url(#p1322c0a05a)" style="fill: none; stroke: #360000; stroke-width: 1.5; stroke-linecap: square"/>
   </g>
   <g id="line2d_71">
    <path d="M -1 748.391626 
L 491.948906 748.392634 
L 532.796172 748.799746 
L 573.643438 750.23204 
L 614.490704 753.782571 
L 655.33797 759.09559 
L 696.185236 763.721069 
L 737.032502 765.850311 
L 777.879768 766.483555 
L 818.727034 766.643109 
" clip-path="url(#p1322c0a05a)" style="fill: none; stroke: #1b0000; stroke-width: 1.5; stroke-linecap: square"/>
   </g>
   <g id="line2d_72">
    <path d="M -1 761.69172 
L 491.948906 761.692002 
L 532.796172 761.805707 
L 573.643438 762.204478 
L 614.490704 763.186221 
L 655.33797 764.644124 
L 696.185236 765.900038 
L 737.032502 766.469972 
L 777.879768 766.637991 
L 818.727034 766.680201 
" clip-path="url(#p1322c0a05a)" style="fill: none; stroke: #000000; stroke-width: 1.5; stroke-linecap: square"/>
   </g>
   <g id="patch_12">
    <path d="M 475.61 782.08 
L 475.61 443.284413 
" style="fill: none; stroke: #000000; stroke-width: 0.8; stroke-linejoin: miter; stroke-linecap: square"/>
   </g>
   <g id="patch_13">
    <path d="M 475.61 782.08 
L 835.065941 782.08 
" style="fill: none; stroke: #000000; stroke-width: 0.8; stroke-linejoin: miter; stroke-linecap: square"/>
   </g>
  </g>
  <g id="text_21">
   <!-- Simulations of Belvarafenib and Cobimetinib effects on MAPK activity -->
   <g transform="translate(-26.306062 37.339875)scale(0.264 -0.264)">
    <defs>
     <path id="DejaVuSans-53" d="M 3425 4513 
L 3425 3897 
Q 3066 4069 2747 4153 
Q 2428 4238 2131 4238 
Q 1616 4238 1336 4038 
Q 1056 3838 1056 3469 
Q 1056 3159 1242 3001 
Q 1428 2844 1947 2747 
L 2328 2669 
Q 3034 2534 3370 2195 
Q 3706 1856 3706 1288 
Q 3706 609 3251 259 
Q 2797 -91 1919 -91 
Q 1588 -91 1214 -16 
Q 841 59 441 206 
L 441 856 
Q 825 641 1194 531 
Q 1563 422 1919 422 
Q 2459 422 2753 634 
Q 3047 847 3047 1241 
Q 3047 1584 2836 1778 
Q 2625 1972 2144 2069 
L 1759 2144 
Q 1053 2284 737 2584 
Q 422 2884 422 3419 
Q 422 4038 858 4394 
Q 1294 4750 2059 4750 
Q 2388 4750 2728 4690 
Q 3069 4631 3425 4513 
z
" transform="scale(0.015625)"/>
     <path id="DejaVuSans-75" d="M 544 1381 
L 544 3500 
L 1119 3500 
L 1119 1403 
Q 1119 906 1312 657 
Q 1506 409 1894 409 
Q 2359 409 2629 706 
Q 2900 1003 2900 1516 
L 2900 3500 
L 3475 3500 
L 3475 0 
L 2900 0 
L 2900 538 
Q 2691 219 2414 64 
Q 2138 -91 1772 -91 
Q 1169 -91 856 284 
Q 544 659 544 1381 
z
M 1991 3584 
L 1991 3584 
z
" transform="scale(0.015625)"/>
     <path id="DejaVuSans-6c" d="M 603 4863 
L 1178 4863 
L 1178 0 
L 603 0 
L 603 4863 
z
" transform="scale(0.015625)"/>
     <path id="DejaVuSans-61" d="M 2194 1759 
Q 1497 1759 1228 1600 
Q 959 1441 959 1056 
Q 959 750 1161 570 
Q 1363 391 1709 391 
Q 2188 391 2477 730 
Q 2766 1069 2766 1631 
L 2766 1759 
L 2194 1759 
z
M 3341 1997 
L 3341 0 
L 2766 0 
L 2766 531 
Q 2569 213 2275 61 
Q 1981 -91 1556 -91 
Q 1019 -91 701 211 
Q 384 513 384 1019 
Q 384 1609 779 1909 
Q 1175 2209 1959 2209 
L 2766 2209 
L 2766 2266 
Q 2766 2663 2505 2880 
Q 2244 3097 1772 3097 
Q 1472 3097 1187 3025 
Q 903 2953 641 2809 
L 641 3341 
Q 956 3463 1253 3523 
Q 1550 3584 1831 3584 
Q 2591 3584 2966 3190 
Q 3341 2797 3341 1997 
z
" transform="scale(0.015625)"/>
     <path id="DejaVuSans-73" d="M 2834 3397 
L 2834 2853 
Q 2591 2978 2328 3040 
Q 2066 3103 1784 3103 
Q 1356 3103 1142 2972 
Q 928 2841 928 2578 
Q 928 2378 1081 2264 
Q 1234 2150 1697 2047 
L 1894 2003 
Q 2506 1872 2764 1633 
Q 3022 1394 3022 966 
Q 3022 478 2636 193 
Q 2250 -91 1575 -91 
Q 1294 -91 989 -36 
Q 684 19 347 128 
L 347 722 
Q 666 556 975 473 
Q 1284 391 1588 391 
Q 1994 391 2212 530 
Q 2431 669 2431 922 
Q 2431 1156 2273 1281 
Q 2116 1406 1581 1522 
L 1381 1569 
Q 847 1681 609 1914 
Q 372 2147 372 2553 
Q 372 3047 722 3315 
Q 1072 3584 1716 3584 
Q 2034 3584 2315 3537 
Q 2597 3491 2834 3397 
z
" transform="scale(0.015625)"/>
     <path id="DejaVuSans-66" d="M 2375 4863 
L 2375 4384 
L 1825 4384 
Q 1516 4384 1395 4259 
Q 1275 4134 1275 3809 
L 1275 3500 
L 2222 3500 
L 2222 3053 
L 1275 3053 
L 1275 0 
L 697 0 
L 697 3053 
L 147 3053 
L 147 3500 
L 697 3500 
L 697 3744 
Q 697 4328 969 4595 
Q 1241 4863 1831 4863 
L 2375 4863 
z
" transform="scale(0.015625)"/>
     <path id="DejaVuSans-42" d="M 1259 2228 
L 1259 519 
L 2272 519 
Q 2781 519 3026 730 
Q 3272 941 3272 1375 
Q 3272 1813 3026 2020 
Q 2781 2228 2272 2228 
L 1259 2228 
z
M 1259 4147 
L 1259 2741 
L 2194 2741 
Q 2656 2741 2882 2914 
Q 3109 3088 3109 3444 
Q 3109 3797 2882 3972 
Q 2656 4147 2194 4147 
L 1259 4147 
z
M 628 4666 
L 2241 4666 
Q 2963 4666 3353 4366 
Q 3744 4066 3744 3513 
Q 3744 3084 3544 2831 
Q 3344 2578 2956 2516 
Q 3422 2416 3680 2098 
Q 3938 1781 3938 1306 
Q 3938 681 3513 340 
Q 3088 0 2303 0 
L 628 0 
L 628 4666 
z
" transform="scale(0.015625)"/>
     <path id="DejaVuSans-76" d="M 191 3500 
L 800 3500 
L 1894 563 
L 2988 3500 
L 3597 3500 
L 2284 0 
L 1503 0 
L 191 3500 
z
" transform="scale(0.015625)"/>
     <path id="DejaVuSans-72" d="M 2631 2963 
Q 2534 3019 2420 3045 
Q 2306 3072 2169 3072 
Q 1681 3072 1420 2755 
Q 1159 2438 1159 1844 
L 1159 0 
L 581 0 
L 581 3500 
L 1159 3500 
L 1159 2956 
Q 1341 3275 1631 3429 
Q 1922 3584 2338 3584 
Q 2397 3584 2469 3576 
Q 2541 3569 2628 3553 
L 2631 2963 
z
" transform="scale(0.015625)"/>
     <path id="DejaVuSans-64" d="M 2906 2969 
L 2906 4863 
L 3481 4863 
L 3481 0 
L 2906 0 
L 2906 525 
Q 2725 213 2448 61 
Q 2172 -91 1784 -91 
Q 1150 -91 751 415 
Q 353 922 353 1747 
Q 353 2572 751 3078 
Q 1150 3584 1784 3584 
Q 2172 3584 2448 3432 
Q 2725 3281 2906 2969 
z
M 947 1747 
Q 947 1113 1208 752 
Q 1469 391 1925 391 
Q 2381 391 2643 752 
Q 2906 1113 2906 1747 
Q 2906 2381 2643 2742 
Q 2381 3103 1925 3103 
Q 1469 3103 1208 2742 
Q 947 2381 947 1747 
z
" transform="scale(0.015625)"/>
     <path id="DejaVuSans-63" d="M 3122 3366 
L 3122 2828 
Q 2878 2963 2633 3030 
Q 2388 3097 2138 3097 
Q 1578 3097 1268 2742 
Q 959 2388 959 1747 
Q 959 1106 1268 751 
Q 1578 397 2138 397 
Q 2388 397 2633 464 
Q 2878 531 3122 666 
L 3122 134 
Q 2881 22 2623 -34 
Q 2366 -91 2075 -91 
Q 1284 -91 818 406 
Q 353 903 353 1747 
Q 353 2603 823 3093 
Q 1294 3584 2113 3584 
Q 2378 3584 2631 3529 
Q 2884 3475 3122 3366 
z
" transform="scale(0.015625)"/>
     <path id="DejaVuSans-41" d="M 2188 4044 
L 1331 1722 
L 3047 1722 
L 2188 4044 
z
M 1831 4666 
L 2547 4666 
L 4325 0 
L 3669 0 
L 3244 1197 
L 1141 1197 
L 716 0 
L 50 0 
L 1831 4666 
z
" transform="scale(0.015625)"/>
     <path id="DejaVuSans-50" d="M 1259 4147 
L 1259 2394 
L 2053 2394 
Q 2494 2394 2734 2622 
Q 2975 2850 2975 3272 
Q 2975 3691 2734 3919 
Q 2494 4147 2053 4147 
L 1259 4147 
z
M 628 4666 
L 2053 4666 
Q 2838 4666 3239 4311 
Q 3641 3956 3641 3272 
Q 3641 2581 3239 2228 
Q 2838 1875 2053 1875 
L 1259 1875 
L 1259 0 
L 628 0 
L 628 4666 
z
" transform="scale(0.015625)"/>
     <path id="DejaVuSans-79" d="M 2059 -325 
Q 1816 -950 1584 -1140 
Q 1353 -1331 966 -1331 
L 506 -1331 
L 506 -850 
L 844 -850 
Q 1081 -850 1212 -737 
Q 1344 -625 1503 -206 
L 1606 56 
L 191 3500 
L 800 3500 
L 1894 763 
L 2988 3500 
L 3597 3500 
L 2059 -325 
z
" transform="scale(0.015625)"/>
    </defs>
    <use xlink:href="#DejaVuSans-53"/>
    <use xlink:href="#DejaVuSans-69" x="63.476562"/>
    <use xlink:href="#DejaVuSans-6d" x="91.259766"/>
    <use xlink:href="#DejaVuSans-75" x="188.671875"/>
    <use xlink:href="#DejaVuSans-6c" x="252.050781"/>
    <use xlink:href="#DejaVuSans-61" x="279.833984"/>
    <use xlink:href="#DejaVuSans-74" x="341.113281"/>
    <use xlink:href="#DejaVuSans-69" x="380.322266"/>
    <use xlink:href="#DejaVuSans-6f" x="408.105469"/>
    <use xlink:href="#DejaVuSans-6e" x="469.287109"/>
    <use xlink:href="#DejaVuSans-73" x="532.666016"/>
    <use xlink:href="#DejaVuSans-20" x="584.765625"/>
    <use xlink:href="#DejaVuSans-6f" x="616.552734"/>
    <use xlink:href="#DejaVuSans-66" x="677.734375"/>
    <use xlink:href="#DejaVuSans-20" x="712.939453"/>
    <use xlink:href="#DejaVuSans-42" x="744.726562"/>
    <use xlink:href="#DejaVuSans-65" x="813.330078"/>
    <use xlink:href="#DejaVuSans-6c" x="874.853516"/>
    <use xlink:href="#DejaVuSans-76" x="902.636719"/>
    <use xlink:href="#DejaVuSans-61" x="961.816406"/>
    <use xlink:href="#DejaVuSans-72" x="1023.095703"/>
    <use xlink:href="#DejaVuSans-61" x="1064.208984"/>
    <use xlink:href="#DejaVuSans-66" x="1125.488281"/>
    <use xlink:href="#DejaVuSans-65" x="1160.693359"/>
    <use xlink:href="#DejaVuSans-6e" x="1222.216797"/>
    <use xlink:href="#DejaVuSans-69" x="1285.595703"/>
    <use xlink:href="#DejaVuSans-62" x="1313.378906"/>
    <use xlink:href="#DejaVuSans-20" x="1376.855469"/>
    <use xlink:href="#DejaVuSans-61" x="1408.642578"/>
    <use xlink:href="#DejaVuSans-6e" x="1469.921875"/>
    <use xlink:href="#DejaVuSans-64" x="1533.300781"/>
    <use xlink:href="#DejaVuSans-20" x="1596.777344"/>
    <use xlink:href="#DejaVuSans-43" x="1628.564453"/>
    <use xlink:href="#DejaVuSans-6f" x="1698.388672"/>
    <use xlink:href="#DejaVuSans-62" x="1759.570312"/>
    <use xlink:href="#DejaVuSans-69" x="1823.046875"/>
    <use xlink:href="#DejaVuSans-6d" x="1850.830078"/>
    <use xlink:href="#DejaVuSans-65" x="1948.242188"/>
    <use xlink:href="#DejaVuSans-74" x="2009.765625"/>
    <use xlink:href="#DejaVuSans-69" x="2048.974609"/>
    <use xlink:href="#DejaVuSans-6e" x="2076.757812"/>
    <use xlink:href="#DejaVuSans-69" x="2140.136719"/>
    <use xlink:href="#DejaVuSans-62" x="2167.919922"/>
    <use xlink:href="#DejaVuSans-20" x="2231.396484"/>
    <use xlink:href="#DejaVuSans-65" x="2263.183594"/>
    <use xlink:href="#DejaVuSans-66" x="2324.707031"/>
    <use xlink:href="#DejaVuSans-66" x="2359.912109"/>
    <use xlink:href="#DejaVuSans-65" x="2395.117188"/>
    <use xlink:href="#DejaVuSans-63" x="2456.640625"/>
    <use xlink:href="#DejaVuSans-74" x="2511.621094"/>
    <use xlink:href="#DejaVuSans-73" x="2550.830078"/>
    <use xlink:href="#DejaVuSans-20" x="2602.929688"/>
    <use xlink:href="#DejaVuSans-6f" x="2634.716797"/>
    <use xlink:href="#DejaVuSans-6e" x="2695.898438"/>
    <use xlink:href="#DejaVuSans-20" x="2759.277344"/>
    <use xlink:href="#DejaVuSans-4d" x="2791.064453"/>
    <use xlink:href="#DejaVuSans-41" x="2877.34375"/>
    <use xlink:href="#DejaVuSans-50" x="2945.751953"/>
    <use xlink:href="#DejaVuSans-4b" x="3006.054688"/>
    <use xlink:href="#DejaVuSans-20" x="3071.630859"/>
    <use xlink:href="#DejaVuSans-61" x="3103.417969"/>
    <use xlink:href="#DejaVuSans-63" x="3164.697266"/>
    <use xlink:href="#DejaVuSans-74" x="3219.677734"/>
    <use xlink:href="#DejaVuSans-69" x="3258.886719"/>
    <use xlink:href="#DejaVuSans-76" x="3286.669922"/>
    <use xlink:href="#DejaVuSans-69" x="3345.849609"/>
    <use xlink:href="#DejaVuSans-74" x="3373.632812"/>
    <use xlink:href="#DejaVuSans-79" x="3412.841797"/>
   </g>
  </g>
  <g id="legend_1">
   <g id="patch_14">
    <path d="M 879.4 656.694625 
L 1027.274375 656.694625 
Q 1031.674375 656.694625 1031.674375 652.294625 
L 1031.674375 274.6 
Q 1031.674375 270.2 1027.274375 270.2 
L 879.4 270.2 
Q 875 270.2 875 274.6 
L 875 652.294625 
Q 875 656.694625 879.4 656.694625 
z
" style="fill: #ffffff; opacity: 0.8; stroke: #cccccc; stroke-linejoin: miter"/>
   </g>
   <g id="text_22">
    <!-- Belvarafenib -->
    <g transform="translate(883.8 295.716563)scale(0.22 -0.22)">
     <use xlink:href="#DejaVuSans-42"/>
     <use xlink:href="#DejaVuSans-65" x="68.603516"/>
     <use xlink:href="#DejaVuSans-6c" x="130.126953"/>
     <use xlink:href="#DejaVuSans-76" x="157.910156"/>
     <use xlink:href="#DejaVuSans-61" x="217.089844"/>
     <use xlink:href="#DejaVuSans-72" x="278.369141"/>
     <use xlink:href="#DejaVuSans-61" x="319.482422"/>
     <use xlink:href="#DejaVuSans-66" x="380.761719"/>
     <use xlink:href="#DejaVuSans-65" x="415.966797"/>
     <use xlink:href="#DejaVuSans-6e" x="477.490234"/>
     <use xlink:href="#DejaVuSans-69" x="540.869141"/>
     <use xlink:href="#DejaVuSans-62" x="568.652344"/>
    </g>
    <!-- (log $\mu$M) -->
    <g transform="translate(907.907187 320.355875)scale(0.22 -0.22)">
     <defs>
      <path id="DejaVuSans-67" d="M 2906 1791 
Q 2906 2416 2648 2759 
Q 2391 3103 1925 3103 
Q 1463 3103 1205 2759 
Q 947 2416 947 1791 
Q 947 1169 1205 825 
Q 1463 481 1925 481 
Q 2391 481 2648 825 
Q 2906 1169 2906 1791 
z
M 3481 434 
Q 3481 -459 3084 -895 
Q 2688 -1331 1869 -1331 
Q 1566 -1331 1297 -1286 
Q 1028 -1241 775 -1147 
L 775 -588 
Q 1028 -725 1275 -790 
Q 1522 -856 1778 -856 
Q 2344 -856 2625 -561 
Q 2906 -266 2906 331 
L 2906 616 
Q 2728 306 2450 153 
Q 2172 0 1784 0 
Q 1141 0 747 490 
Q 353 981 353 1791 
Q 353 2603 747 3093 
Q 1141 3584 1784 3584 
Q 2172 3584 2450 3431 
Q 2728 3278 2906 2969 
L 2906 3500 
L 3481 3500 
L 3481 434 
z
" transform="scale(0.015625)"/>
     </defs>
     <use xlink:href="#DejaVuSans-28" transform="translate(0 0.015625)"/>
     <use xlink:href="#DejaVuSans-6c" transform="translate(39.013672 0.015625)"/>
     <use xlink:href="#DejaVuSans-6f" transform="translate(66.796875 0.015625)"/>
     <use xlink:href="#DejaVuSans-67" transform="translate(127.978516 0.015625)"/>
     <use xlink:href="#DejaVuSans-20" transform="translate(191.455078 0.015625)"/>
     <use xlink:href="#DejaVuSans-Oblique-3bc" transform="translate(223.242188 0.015625)"/>
     <use xlink:href="#DejaVuSans-4d" transform="translate(286.865234 0.015625)"/>
     <use xlink:href="#DejaVuSans-29" transform="translate(373.144531 0.015625)"/>
    </g>
   </g>
   <g id="line2d_73">
    <path style="fill: none; stroke: #ff0000; stroke-width: 1.5; stroke-linecap: square"/>
   </g>
   <g id="text_23">
    <!-- -inf -->
    <g transform="translate(955.676406 352.692437)scale(0.22 -0.22)">
     <defs>
      <path id="DejaVuSans-2d" d="M 313 2009 
L 1997 2009 
L 1997 1497 
L 313 1497 
L 313 2009 
z
" transform="scale(0.015625)"/>
     </defs>
     <use xlink:href="#DejaVuSans-2d"/>
     <use xlink:href="#DejaVuSans-69" x="36.083984"/>
     <use xlink:href="#DejaVuSans-6e" x="63.867188"/>
     <use xlink:href="#DejaVuSans-66" x="127.246094"/>
    </g>
   </g>
   <g id="line2d_74">
    <path style="fill: none; stroke: #e40000; stroke-width: 1.5; stroke-linecap: square"/>
   </g>
   <g id="text_24">
    <!-- -4.0 -->
    <g transform="translate(955.676406 384.984312)scale(0.22 -0.22)">
     <defs>
      <path id="DejaVuSans-2e" d="M 684 794 
L 1344 794 
L 1344 0 
L 684 0 
L 684 794 
z
" transform="scale(0.015625)"/>
     </defs>
     <use xlink:href="#DejaVuSans-2d"/>
     <use xlink:href="#DejaVuSans-34" x="36.083984"/>
     <use xlink:href="#DejaVuSans-2e" x="99.707031"/>
     <use xlink:href="#DejaVuSans-30" x="131.494141"/>
    </g>
   </g>
   <g id="line2d_75">
    <path style="fill: none; stroke: #c90000; stroke-width: 1.5; stroke-linecap: square"/>
   </g>
   <g id="text_25">
    <!-- -3.38 -->
    <g transform="translate(955.676406 417.276187)scale(0.22 -0.22)">
     <use xlink:href="#DejaVuSans-2d"/>
     <use xlink:href="#DejaVuSans-33" x="36.083984"/>
     <use xlink:href="#DejaVuSans-2e" x="99.707031"/>
     <use xlink:href="#DejaVuSans-33" x="131.494141"/>
     <use xlink:href="#DejaVuSans-38" x="195.117188"/>
    </g>
   </g>
   <g id="line2d_76">
    <path style="fill: none; stroke: #ae0000; stroke-width: 1.5; stroke-linecap: square"/>
   </g>
   <g id="text_26">
    <!-- -2.75 -->
    <g transform="translate(955.676406 449.568062)scale(0.22 -0.22)">
     <defs>
      <path id="DejaVuSans-37" d="M 525 4666 
L 3525 4666 
L 3525 4397 
L 1831 0 
L 1172 0 
L 2766 4134 
L 525 4134 
L 525 4666 
z
" transform="scale(0.015625)"/>
      <path id="DejaVuSans-35" d="M 691 4666 
L 3169 4666 
L 3169 4134 
L 1269 4134 
L 1269 2991 
Q 1406 3038 1543 3061 
Q 1681 3084 1819 3084 
Q 2600 3084 3056 2656 
Q 3513 2228 3513 1497 
Q 3513 744 3044 326 
Q 2575 -91 1722 -91 
Q 1428 -91 1123 -41 
Q 819 9 494 109 
L 494 744 
Q 775 591 1075 516 
Q 1375 441 1709 441 
Q 2250 441 2565 725 
Q 2881 1009 2881 1497 
Q 2881 1984 2565 2268 
Q 2250 2553 1709 2553 
Q 1456 2553 1204 2497 
Q 953 2441 691 2322 
L 691 4666 
z
" transform="scale(0.015625)"/>
     </defs>
     <use xlink:href="#DejaVuSans-2d"/>
     <use xlink:href="#DejaVuSans-32" x="36.083984"/>
     <use xlink:href="#DejaVuSans-2e" x="99.707031"/>
     <use xlink:href="#DejaVuSans-37" x="131.494141"/>
     <use xlink:href="#DejaVuSans-35" x="195.117188"/>
    </g>
   </g>
   <g id="line2d_77">
    <path style="fill: none; stroke: #940000; stroke-width: 1.5; stroke-linecap: square"/>
   </g>
   <g id="text_27">
    <!-- -2.13 -->
    <g transform="translate(955.676406 481.859938)scale(0.22 -0.22)">
     <use xlink:href="#DejaVuSans-2d"/>
     <use xlink:href="#DejaVuSans-32" x="36.083984"/>
     <use xlink:href="#DejaVuSans-2e" x="99.707031"/>
     <use xlink:href="#DejaVuSans-31" x="131.494141"/>
     <use xlink:href="#DejaVuSans-33" x="195.117188"/>
    </g>
   </g>
   <g id="line2d_78">
    <path style="fill: none; stroke: #6b0000; stroke-width: 1.5; stroke-linecap: square"/>
   </g>
   <g id="text_28">
    <!-- -1.5 -->
    <g transform="translate(955.676406 514.151813)scale(0.22 -0.22)">
     <use xlink:href="#DejaVuSans-2d"/>
     <use xlink:href="#DejaVuSans-31" x="36.083984"/>
     <use xlink:href="#DejaVuSans-2e" x="99.707031"/>
     <use xlink:href="#DejaVuSans-35" x="131.494141"/>
    </g>
   </g>
   <g id="line2d_79">
    <path style="fill: none; stroke: #510000; stroke-width: 1.5; stroke-linecap: square"/>
   </g>
   <g id="text_29">
    <!-- -0.88 -->
    <g transform="translate(955.676406 546.443688)scale(0.22 -0.22)">
     <use xlink:href="#DejaVuSans-2d"/>
     <use xlink:href="#DejaVuSans-30" x="36.083984"/>
     <use xlink:href="#DejaVuSans-2e" x="99.707031"/>
     <use xlink:href="#DejaVuSans-38" x="131.494141"/>
     <use xlink:href="#DejaVuSans-38" x="195.117188"/>
    </g>
   </g>
   <g id="line2d_80">
    <path style="fill: none; stroke: #360000; stroke-width: 1.5; stroke-linecap: square"/>
   </g>
   <g id="text_30">
    <!-- -0.25 -->
    <g transform="translate(955.676406 578.735563)scale(0.22 -0.22)">
     <use xlink:href="#DejaVuSans-2d"/>
     <use xlink:href="#DejaVuSans-30" x="36.083984"/>
     <use xlink:href="#DejaVuSans-2e" x="99.707031"/>
     <use xlink:href="#DejaVuSans-32" x="131.494141"/>
     <use xlink:href="#DejaVuSans-35" x="195.117188"/>
    </g>
   </g>
   <g id="line2d_81">
    <path style="fill: none; stroke: #1b0000; stroke-width: 1.5; stroke-linecap: square"/>
   </g>
   <g id="text_31">
    <!-- 0.37 -->
    <g transform="translate(955.676406 611.027438)scale(0.22 -0.22)">
     <use xlink:href="#DejaVuSans-30"/>
     <use xlink:href="#DejaVuSans-2e" x="63.623047"/>
     <use xlink:href="#DejaVuSans-33" x="95.410156"/>
     <use xlink:href="#DejaVuSans-37" x="159.033203"/>
    </g>
   </g>
   <g id="line2d_82">
    <path style="fill: none; stroke: #000000; stroke-width: 1.5; stroke-linecap: square"/>
   </g>
   <g id="text_32">
    <!-- 1.0 -->
    <g transform="translate(955.676406 643.319313)scale(0.22 -0.22)">
     <use xlink:href="#DejaVuSans-31"/>
     <use xlink:href="#DejaVuSans-2e" x="63.623047"/>
     <use xlink:href="#DejaVuSans-30" x="95.410156"/>
    </g>
   </g>
  </g>
 </g>
 <defs>
  <clipPath id="p9686b68e05">
   <rect x="83.72" y="75.334413" width="359.455941" height="338.795587"/>
  </clipPath>
  <clipPath id="p982c04f535">
   <rect x="475.61" y="75.334413" width="359.455941" height="338.795587"/>
  </clipPath>
  <clipPath id="p46ae5cc8ea">
   <rect x="83.72" y="443.284413" width="359.455941" height="338.795587"/>
  </clipPath>
  <clipPath id="p1322c0a05a">
   <rect x="475.61" y="443.284413" width="359.455941" height="338.795587"/>
  </clipPath>
 </defs>
</svg>
