<?xml version="1.0" encoding="utf-8" standalone="no"?>
<!DOCTYPE svg PUBLIC "-//W3C//DTD SVG 1.1//EN"
  "http://www.w3.org/Graphics/SVG/1.1/DTD/svg11.dtd">
<svg xmlns:xlink="http://www.w3.org/1999/xlink" width="1072.380437pt" height="832.831875pt" viewBox="0 0 1072.380437 832.831875" xmlns="http://www.w3.org/2000/svg" version="1.1">
 <metadata>
  <rdf:RDF xmlns:dc="http://purl.org/dc/elements/1.1/" xmlns:cc="http://creativecommons.org/ns#" xmlns:rdf="http://www.w3.org/1999/02/22-rdf-syntax-ns#">
   <cc:Work>
    <dc:type rdf:resource="http://purl.org/dc/dcmitype/StillImage"/>
    <dc:date>2023-06-16T15:42:11.536082</dc:date>
    <dc:format>image/svg+xml</dc:format>
    <dc:creator>
     <cc:Agent>
      <dc:title>Matplotlib v3.5.1, https://matplotlib.org/</dc:title>
     </cc:Agent>
    </dc:creator>
   </cc:Work>
  </rdf:RDF>
 </metadata>
 <defs>
  <style type="text/css">*{stroke-linejoin: round; stroke-linecap: butt}</style>
 </defs>
 <g id="figure_1">
  <g id="patch_1">
   <path d="M 0 832.831875 
L 1072.380437 832.831875 
L 1072.380437 0 
L 0 0 
z
" style="fill: #ffffff"/>
  </g>
  <g id="axes_1">
   <g id="patch_2">
    <path d="M 117.226063 405.518765 
L 460.892003 405.518765 
L 460.892003 66.297531 
L 117.226063 66.297531 
z
" style="fill: #ffffff"/>
   </g>
   <g id="matplotlib.axis_1">
    <g id="xtick_1">
     <g id="line2d_1">
      <defs>
       <path id="mcfc5381bfc" d="M 0 0 
L 0 3.5 
" style="stroke: #000000; stroke-width: 0.8"/>
      </defs>
      <g>
       <use xlink:href="#mcfc5381bfc" x="195.331958" y="405.518765" style="stroke: #000000; stroke-width: 0.8"/>
      </g>
     </g>
    </g>
    <g id="xtick_2">
     <g id="line2d_2">
      <g>
       <use xlink:href="#mcfc5381bfc" x="320.301391" y="405.518765" style="stroke: #000000; stroke-width: 0.8"/>
      </g>
     </g>
    </g>
    <g id="xtick_3">
     <g id="line2d_3">
      <g>
       <use xlink:href="#mcfc5381bfc" x="445.270824" y="405.518765" style="stroke: #000000; stroke-width: 0.8"/>
      </g>
     </g>
    </g>
   </g>
   <g id="matplotlib.axis_2">
    <g id="ytick_1">
     <g id="line2d_4">
      <defs>
       <path id="md0f4f8f31d" d="M 0 0 
L -3.5 0 
" style="stroke: #000000; stroke-width: 0.8"/>
      </defs>
      <g>
       <use xlink:href="#md0f4f8f31d" x="117.226063" y="392.362896" style="stroke: #000000; stroke-width: 0.8"/>
      </g>
     </g>
     <g id="text_1">
      <!-- 0 -->
      <g transform="translate(96.228563 400.721178)scale(0.22 -0.22)">
       <defs>
        <path id="DejaVuSans-30" d="M 2034 4250 
Q 1547 4250 1301 3770 
Q 1056 3291 1056 2328 
Q 1056 1369 1301 889 
Q 1547 409 2034 409 
Q 2525 409 2770 889 
Q 3016 1369 3016 2328 
Q 3016 3291 2770 3770 
Q 2525 4250 2034 4250 
z
M 2034 4750 
Q 2819 4750 3233 4129 
Q 3647 3509 3647 2328 
Q 3647 1150 3233 529 
Q 2819 -91 2034 -91 
Q 1250 -91 836 529 
Q 422 1150 422 2328 
Q 422 3509 836 4129 
Q 1250 4750 2034 4750 
z
" transform="scale(0.015625)"/>
       </defs>
       <use xlink:href="#DejaVuSans-30"/>
      </g>
     </g>
    </g>
    <g id="ytick_2">
     <g id="line2d_5">
      <g>
       <use xlink:href="#md0f4f8f31d" x="117.226063" y="312.622276" style="stroke: #000000; stroke-width: 0.8"/>
      </g>
     </g>
     <g id="text_2">
      <!-- 20 -->
      <g transform="translate(82.231063 320.980558)scale(0.22 -0.22)">
       <defs>
        <path id="DejaVuSans-32" d="M 1228 531 
L 3431 531 
L 3431 0 
L 469 0 
L 469 531 
Q 828 903 1448 1529 
Q 2069 2156 2228 2338 
Q 2531 2678 2651 2914 
Q 2772 3150 2772 3378 
Q 2772 3750 2511 3984 
Q 2250 4219 1831 4219 
Q 1534 4219 1204 4116 
Q 875 4013 500 3803 
L 500 4441 
Q 881 4594 1212 4672 
Q 1544 4750 1819 4750 
Q 2544 4750 2975 4387 
Q 3406 4025 3406 3419 
Q 3406 3131 3298 2873 
Q 3191 2616 2906 2266 
Q 2828 2175 2409 1742 
Q 1991 1309 1228 531 
z
" transform="scale(0.015625)"/>
       </defs>
       <use xlink:href="#DejaVuSans-32"/>
       <use xlink:href="#DejaVuSans-30" x="63.623047"/>
      </g>
     </g>
    </g>
    <g id="ytick_3">
     <g id="line2d_6">
      <g>
       <use xlink:href="#md0f4f8f31d" x="117.226063" y="232.881656" style="stroke: #000000; stroke-width: 0.8"/>
      </g>
     </g>
     <g id="text_3">
      <!-- 40 -->
      <g transform="translate(82.231063 241.239937)scale(0.22 -0.22)">
       <defs>
        <path id="DejaVuSans-34" d="M 2419 4116 
L 825 1625 
L 2419 1625 
L 2419 4116 
z
M 2253 4666 
L 3047 4666 
L 3047 1625 
L 3713 1625 
L 3713 1100 
L 3047 1100 
L 3047 0 
L 2419 0 
L 2419 1100 
L 313 1100 
L 313 1709 
L 2253 4666 
z
" transform="scale(0.015625)"/>
       </defs>
       <use xlink:href="#DejaVuSans-34"/>
       <use xlink:href="#DejaVuSans-30" x="63.623047"/>
      </g>
     </g>
    </g>
    <g id="ytick_4">
     <g id="line2d_7">
      <g>
       <use xlink:href="#md0f4f8f31d" x="117.226063" y="153.141036" style="stroke: #000000; stroke-width: 0.8"/>
      </g>
     </g>
     <g id="text_4">
      <!-- 60 -->
      <g transform="translate(82.231063 161.499317)scale(0.22 -0.22)">
       <defs>
        <path id="DejaVuSans-36" d="M 2113 2584 
Q 1688 2584 1439 2293 
Q 1191 2003 1191 1497 
Q 1191 994 1439 701 
Q 1688 409 2113 409 
Q 2538 409 2786 701 
Q 3034 994 3034 1497 
Q 3034 2003 2786 2293 
Q 2538 2584 2113 2584 
z
M 3366 4563 
L 3366 3988 
Q 3128 4100 2886 4159 
Q 2644 4219 2406 4219 
Q 1781 4219 1451 3797 
Q 1122 3375 1075 2522 
Q 1259 2794 1537 2939 
Q 1816 3084 2150 3084 
Q 2853 3084 3261 2657 
Q 3669 2231 3669 1497 
Q 3669 778 3244 343 
Q 2819 -91 2113 -91 
Q 1303 -91 875 529 
Q 447 1150 447 2328 
Q 447 3434 972 4092 
Q 1497 4750 2381 4750 
Q 2619 4750 2861 4703 
Q 3103 4656 3366 4563 
z
" transform="scale(0.015625)"/>
       </defs>
       <use xlink:href="#DejaVuSans-36"/>
       <use xlink:href="#DejaVuSans-30" x="63.623047"/>
      </g>
     </g>
    </g>
    <g id="ytick_5">
     <g id="line2d_8">
      <g>
       <use xlink:href="#md0f4f8f31d" x="117.226063" y="73.400416" style="stroke: #000000; stroke-width: 0.8"/>
      </g>
     </g>
     <g id="text_5">
      <!-- 80 -->
      <g transform="translate(82.231063 81.758697)scale(0.22 -0.22)">
       <defs>
        <path id="DejaVuSans-38" d="M 2034 2216 
Q 1584 2216 1326 1975 
Q 1069 1734 1069 1313 
Q 1069 891 1326 650 
Q 1584 409 2034 409 
Q 2484 409 2743 651 
Q 3003 894 3003 1313 
Q 3003 1734 2745 1975 
Q 2488 2216 2034 2216 
z
M 1403 2484 
Q 997 2584 770 2862 
Q 544 3141 544 3541 
Q 544 4100 942 4425 
Q 1341 4750 2034 4750 
Q 2731 4750 3128 4425 
Q 3525 4100 3525 3541 
Q 3525 3141 3298 2862 
Q 3072 2584 2669 2484 
Q 3125 2378 3379 2068 
Q 3634 1759 3634 1313 
Q 3634 634 3220 271 
Q 2806 -91 2034 -91 
Q 1263 -91 848 271 
Q 434 634 434 1313 
Q 434 1759 690 2068 
Q 947 2378 1403 2484 
z
M 1172 3481 
Q 1172 3119 1398 2916 
Q 1625 2713 2034 2713 
Q 2441 2713 2670 2916 
Q 2900 3119 2900 3481 
Q 2900 3844 2670 4047 
Q 2441 4250 2034 4250 
Q 1625 4250 1398 4047 
Q 1172 3844 1172 3481 
z
" transform="scale(0.015625)"/>
       </defs>
       <use xlink:href="#DejaVuSans-38"/>
       <use xlink:href="#DejaVuSans-30" x="63.623047"/>
      </g>
     </g>
    </g>
    <g id="text_6">
     <!-- % pMEK -->
     <g transform="translate(73.65575 280.494242)rotate(-90)scale(0.22 -0.22)">
      <defs>
       <path id="DejaVuSans-25" d="M 4653 2053 
Q 4381 2053 4226 1822 
Q 4072 1591 4072 1178 
Q 4072 772 4226 539 
Q 4381 306 4653 306 
Q 4919 306 5073 539 
Q 5228 772 5228 1178 
Q 5228 1588 5073 1820 
Q 4919 2053 4653 2053 
z
M 4653 2450 
Q 5147 2450 5437 2106 
Q 5728 1763 5728 1178 
Q 5728 594 5436 251 
Q 5144 -91 4653 -91 
Q 4153 -91 3862 251 
Q 3572 594 3572 1178 
Q 3572 1766 3864 2108 
Q 4156 2450 4653 2450 
z
M 1428 4353 
Q 1159 4353 1004 4120 
Q 850 3888 850 3481 
Q 850 3069 1003 2837 
Q 1156 2606 1428 2606 
Q 1700 2606 1854 2837 
Q 2009 3069 2009 3481 
Q 2009 3884 1853 4118 
Q 1697 4353 1428 4353 
z
M 4250 4750 
L 4750 4750 
L 1831 -91 
L 1331 -91 
L 4250 4750 
z
M 1428 4750 
Q 1922 4750 2215 4408 
Q 2509 4066 2509 3481 
Q 2509 2891 2217 2550 
Q 1925 2209 1428 2209 
Q 931 2209 642 2551 
Q 353 2894 353 3481 
Q 353 4063 643 4406 
Q 934 4750 1428 4750 
z
" transform="scale(0.015625)"/>
       <path id="DejaVuSans-20" transform="scale(0.015625)"/>
       <path id="DejaVuSans-70" d="M 1159 525 
L 1159 -1331 
L 581 -1331 
L 581 3500 
L 1159 3500 
L 1159 2969 
Q 1341 3281 1617 3432 
Q 1894 3584 2278 3584 
Q 2916 3584 3314 3078 
Q 3713 2572 3713 1747 
Q 3713 922 3314 415 
Q 2916 -91 2278 -91 
Q 1894 -91 1617 61 
Q 1341 213 1159 525 
z
M 3116 1747 
Q 3116 2381 2855 2742 
Q 2594 3103 2138 3103 
Q 1681 3103 1420 2742 
Q 1159 2381 1159 1747 
Q 1159 1113 1420 752 
Q 1681 391 2138 391 
Q 2594 391 2855 752 
Q 3116 1113 3116 1747 
z
" transform="scale(0.015625)"/>
       <path id="DejaVuSans-4d" d="M 628 4666 
L 1569 4666 
L 2759 1491 
L 3956 4666 
L 4897 4666 
L 4897 0 
L 4281 0 
L 4281 4097 
L 3078 897 
L 2444 897 
L 1241 4097 
L 1241 0 
L 628 0 
L 628 4666 
z
" transform="scale(0.015625)"/>
       <path id="DejaVuSans-45" d="M 628 4666 
L 3578 4666 
L 3578 4134 
L 1259 4134 
L 1259 2753 
L 3481 2753 
L 3481 2222 
L 1259 2222 
L 1259 531 
L 3634 531 
L 3634 0 
L 628 0 
L 628 4666 
z
" transform="scale(0.015625)"/>
       <path id="DejaVuSans-4b" d="M 628 4666 
L 1259 4666 
L 1259 2694 
L 3353 4666 
L 4166 4666 
L 1850 2491 
L 4331 0 
L 3500 0 
L 1259 2247 
L 1259 0 
L 628 0 
L 628 4666 
z
" transform="scale(0.015625)"/>
      </defs>
      <use xlink:href="#DejaVuSans-25"/>
      <use xlink:href="#DejaVuSans-20" x="95.019531"/>
      <use xlink:href="#DejaVuSans-70" x="126.806641"/>
      <use xlink:href="#DejaVuSans-4d" x="190.283203"/>
      <use xlink:href="#DejaVuSans-45" x="276.5625"/>
      <use xlink:href="#DejaVuSans-4b" x="339.746094"/>
     </g>
    </g>
   </g>
   <g id="line2d_9">
    <path d="M -1 85.915566 
L 132.847242 85.915558 
L 171.900189 85.903397 
L 210.953137 85.854533 
L 250.006085 85.682789 
L 289.059033 85.26066 
L 328.111981 84.502957 
L 367.164929 83.228089 
L 406.217876 82.181681 
L 445.270824 81.716678 
" clip-path="url(#pbd28972a6a)" style="fill: none; stroke: #ff0000; stroke-width: 1.5; stroke-linecap: square"/>
   </g>
   <g id="line2d_10">
    <path d="M -1 124.204519 
L 132.847242 124.204514 
L 171.900189 124.197418 
L 210.953137 124.169437 
L 250.006085 124.07298 
L 289.059033 123.843971 
L 328.111981 123.390473 
L 367.164929 122.663803 
L 406.217876 122.087788 
L 445.270824 121.843408 
" clip-path="url(#pbd28972a6a)" style="fill: none; stroke: #e40000; stroke-width: 1.5; stroke-linecap: square"/>
   </g>
   <g id="line2d_11">
    <path d="M -1 133.331545 
L 132.847242 133.331541 
L 171.900189 133.325614 
L 210.953137 133.30152 
L 250.006085 133.220033 
L 289.059033 133.029934 
L 328.111981 132.656076 
L 367.164929 132.091602 
L 406.217876 131.668168 
L 445.270824 131.494902 
" clip-path="url(#pbd28972a6a)" style="fill: none; stroke: #c90000; stroke-width: 1.5; stroke-linecap: square"/>
   </g>
   <g id="line2d_12">
    <path d="M -1 139.063384 
L 132.847242 139.063381 
L 171.900189 139.059006 
L 210.953137 139.041605 
L 250.006085 138.983027 
L 289.059033 138.848363 
L 328.111981 138.584141 
L 367.164929 138.200533 
L 406.217876 137.92285 
L 445.270824 137.811939 
" clip-path="url(#pbd28972a6a)" style="fill: none; stroke: #ae0000; stroke-width: 1.5; stroke-linecap: square"/>
   </g>
   <g id="line2d_13">
    <path d="M -1 156.274075 
L 132.847242 156.274073 
L 171.900189 156.270807 
L 210.953137 156.257919 
L 250.006085 156.21516 
L 289.059033 156.118548 
L 328.111981 155.92215 
L 367.164929 155.651208 
L 406.217876 155.462494 
L 445.270824 155.38938 
" clip-path="url(#pbd28972a6a)" style="fill: none; stroke: #940000; stroke-width: 1.5; stroke-linecap: square"/>
   </g>
   <g id="line2d_14">
    <path d="M -1 208.585194 
L 132.847242 208.585192 
L 171.900189 208.58229 
L 210.953137 208.571017 
L 250.006085 208.535072 
L 289.059033 208.454888 
L 328.111981 208.270231 
L 367.164929 208.047864 
L 406.217876 207.907027 
L 445.270824 207.856397 
" clip-path="url(#pbd28972a6a)" style="fill: none; stroke: #6b0000; stroke-width: 1.5; stroke-linecap: square"/>
   </g>
   <g id="line2d_15">
    <path d="M -1 296.643135 
L 132.847242 296.643134 
L 171.900189 296.64104 
L 210.953137 296.633047 
L 250.006085 296.607032 
L 289.059033 296.528691 
L 328.111981 296.393753 
L 367.164929 296.261511 
L 406.217876 296.195205 
L 445.270824 296.174579 
" clip-path="url(#pbd28972a6a)" style="fill: none; stroke: #510000; stroke-width: 1.5; stroke-linecap: square"/>
   </g>
   <g id="line2d_16">
    <path d="M -1 360.445427 
L 132.847242 360.445426 
L 171.900189 360.444082 
L 210.953137 360.439088 
L 250.006085 360.424591 
L 289.059033 360.394716 
L 328.111981 360.353322 
L 367.164929 360.324047 
L 406.217876 360.313091 
L 445.270824 360.310107 
" clip-path="url(#pbd28972a6a)" style="fill: none; stroke: #360000; stroke-width: 1.5; stroke-linecap: square"/>
   </g>
   <g id="line2d_17">
    <path d="M -1 383.810894 
L 132.847242 383.810894 
L 171.900189 383.810598 
L 210.953137 383.809526 
L 250.006085 383.806637 
L 289.059033 383.801564 
L 328.111981 383.796182 
L 367.164929 383.793314 
L 406.217876 383.792404 
L 445.270824 383.79217 
" clip-path="url(#pbd28972a6a)" style="fill: none; stroke: #1b0000; stroke-width: 1.5; stroke-linecap: square"/>
   </g>
   <g id="line2d_18">
    <path d="M -1 390.099606 
L 132.847242 390.099606 
L 171.900189 390.09957 
L 210.953137 390.099441 
L 250.006085 390.099115 
L 289.059033 390.098603 
L 328.111981 390.098133 
L 367.164929 390.097911 
L 406.217876 390.097845 
L 445.270824 390.097828 
" clip-path="url(#pbd28972a6a)" style="fill: none; stroke: #000000; stroke-width: 1.5; stroke-linecap: square"/>
   </g>
   <g id="patch_3">
    <path d="M 117.226063 405.518765 
L 117.226063 66.297531 
" style="fill: none; stroke: #000000; stroke-width: 0.8; stroke-linejoin: miter; stroke-linecap: square"/>
   </g>
   <g id="patch_4">
    <path d="M 117.226063 405.518765 
L 460.892003 405.518765 
" style="fill: none; stroke: #000000; stroke-width: 0.8; stroke-linejoin: miter; stroke-linecap: square"/>
   </g>
  </g>
  <g id="axes_2">
   <g id="patch_5">
    <path d="M 524.906062 405.518765 
L 868.572003 405.518765 
L 868.572003 66.297531 
L 524.906062 66.297531 
z
" style="fill: #ffffff"/>
   </g>
   <g id="matplotlib.axis_3">
    <g id="xtick_4">
     <g id="line2d_19">
      <g>
       <use xlink:href="#mcfc5381bfc" x="603.011958" y="405.518765" style="stroke: #000000; stroke-width: 0.8"/>
      </g>
     </g>
    </g>
    <g id="xtick_5">
     <g id="line2d_20">
      <g>
       <use xlink:href="#mcfc5381bfc" x="727.981391" y="405.518765" style="stroke: #000000; stroke-width: 0.8"/>
      </g>
     </g>
    </g>
    <g id="xtick_6">
     <g id="line2d_21">
      <g>
       <use xlink:href="#mcfc5381bfc" x="852.950824" y="405.518765" style="stroke: #000000; stroke-width: 0.8"/>
      </g>
     </g>
    </g>
   </g>
   <g id="matplotlib.axis_4">
    <g id="ytick_6">
     <g id="line2d_22">
      <g>
       <use xlink:href="#md0f4f8f31d" x="524.906062" y="392.36688" style="stroke: #000000; stroke-width: 0.8"/>
      </g>
     </g>
     <g id="text_7">
      <!-- 0 -->
      <g transform="translate(503.908562 400.725161)scale(0.22 -0.22)">
       <use xlink:href="#DejaVuSans-30"/>
      </g>
     </g>
    </g>
    <g id="ytick_7">
     <g id="line2d_23">
      <g>
       <use xlink:href="#md0f4f8f31d" x="524.906062" y="312.347789" style="stroke: #000000; stroke-width: 0.8"/>
      </g>
     </g>
     <g id="text_8">
      <!-- 20 -->
      <g transform="translate(489.911062 320.70607)scale(0.22 -0.22)">
       <use xlink:href="#DejaVuSans-32"/>
       <use xlink:href="#DejaVuSans-30" x="63.623047"/>
      </g>
     </g>
    </g>
    <g id="ytick_8">
     <g id="line2d_24">
      <g>
       <use xlink:href="#md0f4f8f31d" x="524.906062" y="232.328698" style="stroke: #000000; stroke-width: 0.8"/>
      </g>
     </g>
     <g id="text_9">
      <!-- 40 -->
      <g transform="translate(489.911062 240.68698)scale(0.22 -0.22)">
       <use xlink:href="#DejaVuSans-34"/>
       <use xlink:href="#DejaVuSans-30" x="63.623047"/>
      </g>
     </g>
    </g>
    <g id="ytick_9">
     <g id="line2d_25">
      <g>
       <use xlink:href="#md0f4f8f31d" x="524.906062" y="152.309608" style="stroke: #000000; stroke-width: 0.8"/>
      </g>
     </g>
     <g id="text_10">
      <!-- 60 -->
      <g transform="translate(489.911062 160.667889)scale(0.22 -0.22)">
       <use xlink:href="#DejaVuSans-36"/>
       <use xlink:href="#DejaVuSans-30" x="63.623047"/>
      </g>
     </g>
    </g>
    <g id="ytick_10">
     <g id="line2d_26">
      <g>
       <use xlink:href="#md0f4f8f31d" x="524.906062" y="72.290517" style="stroke: #000000; stroke-width: 0.8"/>
      </g>
     </g>
     <g id="text_11">
      <!-- 80 -->
      <g transform="translate(489.911062 80.648798)scale(0.22 -0.22)">
       <use xlink:href="#DejaVuSans-38"/>
       <use xlink:href="#DejaVuSans-30" x="63.623047"/>
      </g>
     </g>
    </g>
   </g>
   <g id="line2d_27">
    <path d="M -1 231.939133 
L 540.527242 231.936988 
L 579.580189 231.16066 
L 618.633137 228.132816 
L 657.686085 218.201703 
L 696.739033 194.03988 
L 735.791981 143.235861 
L 774.844929 100.308162 
L 813.897876 85.614443 
L 852.950824 81.716678 
" clip-path="url(#p77ef8ddf9b)" style="fill: none; stroke: #ff0000; stroke-width: 1.5; stroke-linecap: square"/>
   </g>
   <g id="line2d_28">
    <path d="M -1 201.86406 
L 540.527242 201.862617 
L 579.580189 201.341596 
L 618.633137 199.304266 
L 657.686085 192.679709 
L 696.739033 177.575518 
L 735.791981 149.650998 
L 774.844929 129.46114 
L 813.897876 123.051719 
L 852.950824 121.357831 
" clip-path="url(#p77ef8ddf9b)" style="fill: none; stroke: #e40000; stroke-width: 1.5; stroke-linecap: square"/>
   </g>
   <g id="line2d_29">
    <path d="M -1 177.380677 
L 540.527242 177.379782 
L 579.580189 177.05626 
L 618.633137 175.791466 
L 657.686085 171.655291 
L 696.739033 162.420585 
L 735.791981 146.339105 
L 774.844929 135.14106 
L 813.897876 131.71329 
L 852.950824 130.813574 
" clip-path="url(#p77ef8ddf9b)" style="fill: none; stroke: #c90000; stroke-width: 1.5; stroke-linecap: square"/>
   </g>
   <g id="line2d_30">
    <path d="M -1 162.585893 
L 540.527242 162.585394 
L 579.580189 162.404388 
L 618.633137 161.693311 
L 657.686085 159.355371 
L 696.739033 154.161717 
L 735.791981 145.345622 
L 774.844929 139.31722 
L 813.897876 137.510109 
L 852.950824 137.038011 
" clip-path="url(#p77ef8ddf9b)" style="fill: none; stroke: #ae0000; stroke-width: 1.5; stroke-linecap: square"/>
   </g>
   <g id="line2d_31">
    <path d="M -1 170.183528 
L 540.527242 170.183215 
L 579.580189 170.06962 
L 618.633137 169.624634 
L 657.686085 168.170307 
L 696.739033 164.972399 
L 735.791981 159.487516 
L 774.844929 155.95513 
L 813.897876 154.901977 
L 852.950824 154.627389 
" clip-path="url(#p77ef8ddf9b)" style="fill: none; stroke: #940000; stroke-width: 1.5; stroke-linecap: square"/>
   </g>
   <g id="line2d_32">
    <path d="M -1 218.332792 
L 540.527242 218.332544 
L 579.580189 218.243596 
L 618.633137 217.899314 
L 657.686085 216.814701 
L 696.739033 214.456293 
L 735.791981 210.2966 
L 774.844929 208.091529 
L 813.897876 207.426736 
L 852.950824 207.254293 
" clip-path="url(#p77ef8ddf9b)" style="fill: none; stroke: #6b0000; stroke-width: 1.5; stroke-linecap: square"/>
   </g>
   <g id="line2d_33">
    <path d="M -1 301.510466 
L 540.527242 301.510307 
L 579.580189 301.453338 
L 618.633137 301.236081 
L 657.686085 300.535699 
L 696.739033 298.759697 
L 735.791981 296.985466 
L 774.844929 296.170669 
L 813.897876 295.920876 
L 852.950824 295.85629 
" clip-path="url(#p77ef8ddf9b)" style="fill: none; stroke: #510000; stroke-width: 1.5; stroke-linecap: square"/>
   </g>
   <g id="line2d_34">
    <path d="M -1 361.165485 
L 540.527242 361.165427 
L 579.580189 361.144889 
L 618.633137 361.071764 
L 657.686085 360.886262 
L 696.739033 360.60542 
L 735.791981 360.361384 
L 774.844929 360.247397 
L 813.897876 360.212788 
L 852.950824 360.203981 
" clip-path="url(#p77ef8ddf9b)" style="fill: none; stroke: #360000; stroke-width: 1.5; stroke-linecap: square"/>
   </g>
   <g id="line2d_35">
    <path d="M -1 383.843151 
L 540.527242 383.843146 
L 579.580189 383.84144 
L 618.633137 383.835438 
L 657.686085 383.820539 
L 696.739033 383.798198 
L 735.791981 383.778701 
L 774.844929 383.769711 
L 813.897876 383.767036 
L 852.950824 383.766362 
" clip-path="url(#p77ef8ddf9b)" style="fill: none; stroke: #1b0000; stroke-width: 1.5; stroke-linecap: square"/>
   </g>
   <g id="line2d_36">
    <path d="M -1 390.099576 
L 540.527242 390.099576 
L 579.580189 390.099447 
L 618.633137 390.098995 
L 657.686085 390.097881 
L 696.739033 390.096225 
L 735.791981 390.094798 
L 774.844929 390.09415 
L 813.897876 390.093959 
L 852.950824 390.093911 
" clip-path="url(#p77ef8ddf9b)" style="fill: none; stroke: #000000; stroke-width: 1.5; stroke-linecap: square"/>
   </g>
   <g id="patch_6">
    <path d="M 524.906062 405.518765 
L 524.906062 66.297531 
" style="fill: none; stroke: #000000; stroke-width: 0.8; stroke-linejoin: miter; stroke-linecap: square"/>
   </g>
   <g id="patch_7">
    <path d="M 524.906062 405.518765 
L 868.572003 405.518765 
" style="fill: none; stroke: #000000; stroke-width: 0.8; stroke-linejoin: miter; stroke-linecap: square"/>
   </g>
  </g>
  <g id="axes_3">
   <g id="patch_8">
    <path d="M 117.226063 772 
L 460.892003 772 
L 460.892003 432.778765 
L 117.226063 432.778765 
z
" style="fill: #ffffff"/>
   </g>
   <g id="matplotlib.axis_5">
    <g id="xtick_7">
     <g id="line2d_37">
      <g>
       <use xlink:href="#mcfc5381bfc" x="195.331958" y="772" style="stroke: #000000; stroke-width: 0.8"/>
      </g>
     </g>
     <g id="text_12">
      <!-- $\mathdefault{10^{-3}}$ -->
      <g transform="translate(169.481958 795.716563)scale(0.22 -0.22)">
       <defs>
        <path id="DejaVuSans-31" d="M 794 531 
L 1825 531 
L 1825 4091 
L 703 3866 
L 703 4441 
L 1819 4666 
L 2450 4666 
L 2450 531 
L 3481 531 
L 3481 0 
L 794 0 
L 794 531 
z
" transform="scale(0.015625)"/>
        <path id="DejaVuSans-2212" d="M 678 2272 
L 4684 2272 
L 4684 1741 
L 678 1741 
L 678 2272 
z
" transform="scale(0.015625)"/>
        <path id="DejaVuSans-33" d="M 2597 2516 
Q 3050 2419 3304 2112 
Q 3559 1806 3559 1356 
Q 3559 666 3084 287 
Q 2609 -91 1734 -91 
Q 1441 -91 1130 -33 
Q 819 25 488 141 
L 488 750 
Q 750 597 1062 519 
Q 1375 441 1716 441 
Q 2309 441 2620 675 
Q 2931 909 2931 1356 
Q 2931 1769 2642 2001 
Q 2353 2234 1838 2234 
L 1294 2234 
L 1294 2753 
L 1863 2753 
Q 2328 2753 2575 2939 
Q 2822 3125 2822 3475 
Q 2822 3834 2567 4026 
Q 2313 4219 1838 4219 
Q 1578 4219 1281 4162 
Q 984 4106 628 3988 
L 628 4550 
Q 988 4650 1302 4700 
Q 1616 4750 1894 4750 
Q 2613 4750 3031 4423 
Q 3450 4097 3450 3541 
Q 3450 3153 3228 2886 
Q 3006 2619 2597 2516 
z
" transform="scale(0.015625)"/>
       </defs>
       <use xlink:href="#DejaVuSans-31" transform="translate(0 0.765625)"/>
       <use xlink:href="#DejaVuSans-30" transform="translate(63.623047 0.765625)"/>
       <use xlink:href="#DejaVuSans-2212" transform="translate(128.203125 39.046875)scale(0.7)"/>
       <use xlink:href="#DejaVuSans-33" transform="translate(186.855469 39.046875)scale(0.7)"/>
      </g>
     </g>
    </g>
    <g id="xtick_8">
     <g id="line2d_38">
      <g>
       <use xlink:href="#mcfc5381bfc" x="320.301391" y="772" style="stroke: #000000; stroke-width: 0.8"/>
      </g>
     </g>
     <g id="text_13">
      <!-- $\mathdefault{10^{-1}}$ -->
      <g transform="translate(294.451391 795.716563)scale(0.22 -0.22)">
       <use xlink:href="#DejaVuSans-31" transform="translate(0 0.684375)"/>
       <use xlink:href="#DejaVuSans-30" transform="translate(63.623047 0.684375)"/>
       <use xlink:href="#DejaVuSans-2212" transform="translate(128.203125 38.965625)scale(0.7)"/>
       <use xlink:href="#DejaVuSans-31" transform="translate(186.855469 38.965625)scale(0.7)"/>
      </g>
     </g>
    </g>
    <g id="xtick_9">
     <g id="line2d_39">
      <g>
       <use xlink:href="#mcfc5381bfc" x="445.270824" y="772" style="stroke: #000000; stroke-width: 0.8"/>
      </g>
     </g>
     <g id="text_14">
      <!-- $\mathdefault{10^{1}}$ -->
      <g transform="translate(425.910824 795.716563)scale(0.22 -0.22)">
       <use xlink:href="#DejaVuSans-31" transform="translate(0 0.684375)"/>
       <use xlink:href="#DejaVuSans-30" transform="translate(63.623047 0.684375)"/>
       <use xlink:href="#DejaVuSans-31" transform="translate(128.203125 38.965625)scale(0.7)"/>
      </g>
     </g>
    </g>
    <g id="text_15">
     <!-- Cobimetinib ($\mu$M) -->
     <g transform="translate(194.129033 821.011875)scale(0.22 -0.22)">
      <defs>
       <path id="DejaVuSans-43" d="M 4122 4306 
L 4122 3641 
Q 3803 3938 3442 4084 
Q 3081 4231 2675 4231 
Q 1875 4231 1450 3742 
Q 1025 3253 1025 2328 
Q 1025 1406 1450 917 
Q 1875 428 2675 428 
Q 3081 428 3442 575 
Q 3803 722 4122 1019 
L 4122 359 
Q 3791 134 3420 21 
Q 3050 -91 2638 -91 
Q 1578 -91 968 557 
Q 359 1206 359 2328 
Q 359 3453 968 4101 
Q 1578 4750 2638 4750 
Q 3056 4750 3426 4639 
Q 3797 4528 4122 4306 
z
" transform="scale(0.015625)"/>
       <path id="DejaVuSans-6f" d="M 1959 3097 
Q 1497 3097 1228 2736 
Q 959 2375 959 1747 
Q 959 1119 1226 758 
Q 1494 397 1959 397 
Q 2419 397 2687 759 
Q 2956 1122 2956 1747 
Q 2956 2369 2687 2733 
Q 2419 3097 1959 3097 
z
M 1959 3584 
Q 2709 3584 3137 3096 
Q 3566 2609 3566 1747 
Q 3566 888 3137 398 
Q 2709 -91 1959 -91 
Q 1206 -91 779 398 
Q 353 888 353 1747 
Q 353 2609 779 3096 
Q 1206 3584 1959 3584 
z
" transform="scale(0.015625)"/>
       <path id="DejaVuSans-62" d="M 3116 1747 
Q 3116 2381 2855 2742 
Q 2594 3103 2138 3103 
Q 1681 3103 1420 2742 
Q 1159 2381 1159 1747 
Q 1159 1113 1420 752 
Q 1681 391 2138 391 
Q 2594 391 2855 752 
Q 3116 1113 3116 1747 
z
M 1159 2969 
Q 1341 3281 1617 3432 
Q 1894 3584 2278 3584 
Q 2916 3584 3314 3078 
Q 3713 2572 3713 1747 
Q 3713 922 3314 415 
Q 2916 -91 2278 -91 
Q 1894 -91 1617 61 
Q 1341 213 1159 525 
L 1159 0 
L 581 0 
L 581 4863 
L 1159 4863 
L 1159 2969 
z
" transform="scale(0.015625)"/>
       <path id="DejaVuSans-69" d="M 603 3500 
L 1178 3500 
L 1178 0 
L 603 0 
L 603 3500 
z
M 603 4863 
L 1178 4863 
L 1178 4134 
L 603 4134 
L 603 4863 
z
" transform="scale(0.015625)"/>
       <path id="DejaVuSans-6d" d="M 3328 2828 
Q 3544 3216 3844 3400 
Q 4144 3584 4550 3584 
Q 5097 3584 5394 3201 
Q 5691 2819 5691 2113 
L 5691 0 
L 5113 0 
L 5113 2094 
Q 5113 2597 4934 2840 
Q 4756 3084 4391 3084 
Q 3944 3084 3684 2787 
Q 3425 2491 3425 1978 
L 3425 0 
L 2847 0 
L 2847 2094 
Q 2847 2600 2669 2842 
Q 2491 3084 2119 3084 
Q 1678 3084 1418 2786 
Q 1159 2488 1159 1978 
L 1159 0 
L 581 0 
L 581 3500 
L 1159 3500 
L 1159 2956 
Q 1356 3278 1631 3431 
Q 1906 3584 2284 3584 
Q 2666 3584 2933 3390 
Q 3200 3197 3328 2828 
z
" transform="scale(0.015625)"/>
       <path id="DejaVuSans-65" d="M 3597 1894 
L 3597 1613 
L 953 1613 
Q 991 1019 1311 708 
Q 1631 397 2203 397 
Q 2534 397 2845 478 
Q 3156 559 3463 722 
L 3463 178 
Q 3153 47 2828 -22 
Q 2503 -91 2169 -91 
Q 1331 -91 842 396 
Q 353 884 353 1716 
Q 353 2575 817 3079 
Q 1281 3584 2069 3584 
Q 2775 3584 3186 3129 
Q 3597 2675 3597 1894 
z
M 3022 2063 
Q 3016 2534 2758 2815 
Q 2500 3097 2075 3097 
Q 1594 3097 1305 2825 
Q 1016 2553 972 2059 
L 3022 2063 
z
" transform="scale(0.015625)"/>
       <path id="DejaVuSans-74" d="M 1172 4494 
L 1172 3500 
L 2356 3500 
L 2356 3053 
L 1172 3053 
L 1172 1153 
Q 1172 725 1289 603 
Q 1406 481 1766 481 
L 2356 481 
L 2356 0 
L 1766 0 
Q 1100 0 847 248 
Q 594 497 594 1153 
L 594 3053 
L 172 3053 
L 172 3500 
L 594 3500 
L 594 4494 
L 1172 4494 
z
" transform="scale(0.015625)"/>
       <path id="DejaVuSans-6e" d="M 3513 2113 
L 3513 0 
L 2938 0 
L 2938 2094 
Q 2938 2591 2744 2837 
Q 2550 3084 2163 3084 
Q 1697 3084 1428 2787 
Q 1159 2491 1159 1978 
L 1159 0 
L 581 0 
L 581 3500 
L 1159 3500 
L 1159 2956 
Q 1366 3272 1645 3428 
Q 1925 3584 2291 3584 
Q 2894 3584 3203 3211 
Q 3513 2838 3513 2113 
z
" transform="scale(0.015625)"/>
       <path id="DejaVuSans-28" d="M 1984 4856 
Q 1566 4138 1362 3434 
Q 1159 2731 1159 2009 
Q 1159 1288 1364 580 
Q 1569 -128 1984 -844 
L 1484 -844 
Q 1016 -109 783 600 
Q 550 1309 550 2009 
Q 550 2706 781 3412 
Q 1013 4119 1484 4856 
L 1984 4856 
z
" transform="scale(0.015625)"/>
       <path id="DejaVuSans-Oblique-3bc" d="M -84 -1331 
L 856 3500 
L 1434 3500 
L 1009 1322 
Q 997 1256 987 1175 
Q 978 1094 978 1013 
Q 978 722 1161 565 
Q 1344 409 1684 409 
Q 2147 409 2431 671 
Q 2716 934 2816 1459 
L 3213 3500 
L 3788 3500 
L 3266 809 
Q 3253 750 3248 706 
Q 3244 663 3244 628 
Q 3244 531 3283 486 
Q 3322 441 3406 441 
Q 3438 441 3492 456 
Q 3547 472 3647 513 
L 3559 50 
Q 3422 -19 3297 -55 
Q 3172 -91 3053 -91 
Q 2847 -91 2730 40 
Q 2613 172 2613 403 
Q 2438 153 2195 31 
Q 1953 -91 1625 -91 
Q 1334 -91 1117 43 
Q 900 178 831 397 
L 494 -1331 
L -84 -1331 
z
" transform="scale(0.015625)"/>
       <path id="DejaVuSans-29" d="M 513 4856 
L 1013 4856 
Q 1481 4119 1714 3412 
Q 1947 2706 1947 2009 
Q 1947 1309 1714 600 
Q 1481 -109 1013 -844 
L 513 -844 
Q 928 -128 1133 580 
Q 1338 1288 1338 2009 
Q 1338 2731 1133 3434 
Q 928 4138 513 4856 
z
" transform="scale(0.015625)"/>
      </defs>
      <use xlink:href="#DejaVuSans-43" transform="translate(0 0.015625)"/>
      <use xlink:href="#DejaVuSans-6f" transform="translate(69.824219 0.015625)"/>
      <use xlink:href="#DejaVuSans-62" transform="translate(131.005859 0.015625)"/>
      <use xlink:href="#DejaVuSans-69" transform="translate(194.482422 0.015625)"/>
      <use xlink:href="#DejaVuSans-6d" transform="translate(222.265625 0.015625)"/>
      <use xlink:href="#DejaVuSans-65" transform="translate(319.677734 0.015625)"/>
      <use xlink:href="#DejaVuSans-74" transform="translate(381.201172 0.015625)"/>
      <use xlink:href="#DejaVuSans-69" transform="translate(420.410156 0.015625)"/>
      <use xlink:href="#DejaVuSans-6e" transform="translate(448.193359 0.015625)"/>
      <use xlink:href="#DejaVuSans-69" transform="translate(511.572266 0.015625)"/>
      <use xlink:href="#DejaVuSans-62" transform="translate(539.355469 0.015625)"/>
      <use xlink:href="#DejaVuSans-20" transform="translate(602.832031 0.015625)"/>
      <use xlink:href="#DejaVuSans-28" transform="translate(634.619141 0.015625)"/>
      <use xlink:href="#DejaVuSans-Oblique-3bc" transform="translate(673.632812 0.015625)"/>
      <use xlink:href="#DejaVuSans-4d" transform="translate(737.255859 0.015625)"/>
      <use xlink:href="#DejaVuSans-29" transform="translate(823.535156 0.015625)"/>
     </g>
    </g>
   </g>
   <g id="matplotlib.axis_6">
    <g id="ytick_11">
     <g id="line2d_40">
      <g>
       <use xlink:href="#md0f4f8f31d" x="117.226063" y="756.595481" style="stroke: #000000; stroke-width: 0.8"/>
      </g>
     </g>
     <g id="text_16">
      <!-- 0 -->
      <g transform="translate(96.228563 764.953763)scale(0.22 -0.22)">
       <use xlink:href="#DejaVuSans-30"/>
      </g>
     </g>
    </g>
    <g id="ytick_12">
     <g id="line2d_41">
      <g>
       <use xlink:href="#md0f4f8f31d" x="117.226063" y="669.812351" style="stroke: #000000; stroke-width: 0.8"/>
      </g>
     </g>
     <g id="text_17">
      <!-- 20 -->
      <g transform="translate(82.231063 678.170632)scale(0.22 -0.22)">
       <use xlink:href="#DejaVuSans-32"/>
       <use xlink:href="#DejaVuSans-30" x="63.623047"/>
      </g>
     </g>
    </g>
    <g id="ytick_13">
     <g id="line2d_42">
      <g>
       <use xlink:href="#md0f4f8f31d" x="117.226063" y="583.02922" style="stroke: #000000; stroke-width: 0.8"/>
      </g>
     </g>
     <g id="text_18">
      <!-- 40 -->
      <g transform="translate(82.231063 591.387501)scale(0.22 -0.22)">
       <use xlink:href="#DejaVuSans-34"/>
       <use xlink:href="#DejaVuSans-30" x="63.623047"/>
      </g>
     </g>
    </g>
    <g id="ytick_14">
     <g id="line2d_43">
      <g>
       <use xlink:href="#md0f4f8f31d" x="117.226063" y="496.246089" style="stroke: #000000; stroke-width: 0.8"/>
      </g>
     </g>
     <g id="text_19">
      <!-- 60 -->
      <g transform="translate(82.231063 504.60437)scale(0.22 -0.22)">
       <use xlink:href="#DejaVuSans-36"/>
       <use xlink:href="#DejaVuSans-30" x="63.623047"/>
      </g>
     </g>
    </g>
    <g id="text_20">
     <!-- % pERK -->
     <g transform="translate(73.65575 645.12782)rotate(-90)scale(0.22 -0.22)">
      <defs>
       <path id="DejaVuSans-52" d="M 2841 2188 
Q 3044 2119 3236 1894 
Q 3428 1669 3622 1275 
L 4263 0 
L 3584 0 
L 2988 1197 
Q 2756 1666 2539 1819 
Q 2322 1972 1947 1972 
L 1259 1972 
L 1259 0 
L 628 0 
L 628 4666 
L 2053 4666 
Q 2853 4666 3247 4331 
Q 3641 3997 3641 3322 
Q 3641 2881 3436 2590 
Q 3231 2300 2841 2188 
z
M 1259 4147 
L 1259 2491 
L 2053 2491 
Q 2509 2491 2742 2702 
Q 2975 2913 2975 3322 
Q 2975 3731 2742 3939 
Q 2509 4147 2053 4147 
L 1259 4147 
z
" transform="scale(0.015625)"/>
      </defs>
      <use xlink:href="#DejaVuSans-25"/>
      <use xlink:href="#DejaVuSans-20" x="95.019531"/>
      <use xlink:href="#DejaVuSans-70" x="126.806641"/>
      <use xlink:href="#DejaVuSans-45" x="190.283203"/>
      <use xlink:href="#DejaVuSans-52" x="253.466797"/>
      <use xlink:href="#DejaVuSans-4b" x="322.949219"/>
     </g>
    </g>
   </g>
   <g id="line2d_44">
    <path d="M -1 448.794458 
L 132.847242 448.795744 
L 171.900189 450.693324 
L 210.953137 458.291908 
L 250.006085 484.673238 
L 289.059033 547.229754 
L 328.111981 644.161869 
L 367.164929 724.871782 
L 406.217876 748.466393 
L 445.270824 754.605484 
" clip-path="url(#pee83c3d1a0)" style="fill: none; stroke: #ff0000; stroke-width: 1.5; stroke-linecap: square"/>
   </g>
   <g id="line2d_45">
    <path d="M -1 466.19648 
L 132.847242 466.197804 
L 171.900189 468.148398 
L 210.953137 475.891282 
L 250.006085 502.059637 
L 289.059033 561.623267 
L 328.111981 658.275108 
L 367.164929 728.858595 
L 406.217876 749.494036 
L 445.270824 754.86084 
" clip-path="url(#pee83c3d1a0)" style="fill: none; stroke: #e40000; stroke-width: 1.5; stroke-linecap: square"/>
   </g>
   <g id="line2d_46">
    <path d="M -1 470.600449 
L 132.847242 470.601781 
L 171.900189 472.561636 
L 210.953137 480.323041 
L 250.006085 506.377726 
L 289.059033 565.162508 
L 328.111981 661.677571 
L 367.164929 729.81112 
L 406.217876 749.741328 
L 445.270824 754.922328 
" clip-path="url(#pee83c3d1a0)" style="fill: none; stroke: #c90000; stroke-width: 1.5; stroke-linecap: square"/>
   </g>
   <g id="line2d_47">
    <path d="M -1 473.421273 
L 132.847242 473.422609 
L 171.900189 475.388182 
L 210.953137 483.160899 
L 250.006085 509.141593 
L 289.059033 567.442174 
L 328.111981 663.86179 
L 367.164929 730.428427 
L 406.217876 749.902906 
L 445.270824 754.962589 
" clip-path="url(#pee83c3d1a0)" style="fill: none; stroke: #ae0000; stroke-width: 1.5; stroke-linecap: square"/>
   </g>
   <g id="line2d_48">
    <path d="M -1 482.163465 
L 132.847242 482.164812 
L 171.900189 484.143812 
L 210.953137 491.933825 
L 250.006085 517.632396 
L 289.059033 574.415814 
L 328.111981 670.270129 
L 367.164929 732.192256 
L 406.217876 750.356581 
L 445.270824 755.074676 
" clip-path="url(#pee83c3d1a0)" style="fill: none; stroke: #940000; stroke-width: 1.5; stroke-linecap: square"/>
   </g>
   <g id="line2d_49">
    <path d="M -1 511.682826 
L 132.847242 511.684182 
L 171.900189 513.66638 
L 210.953137 521.349917 
L 250.006085 545.676247 
L 289.059033 598.076096 
L 328.111981 689.568709 
L 367.164929 737.494915 
L 406.217876 751.718512 
L 445.270824 755.409805 
" clip-path="url(#pee83c3d1a0)" style="fill: none; stroke: #6b0000; stroke-width: 1.5; stroke-linecap: square"/>
   </g>
   <g id="line2d_50">
    <path d="M -1 577.485376 
L 132.847242 577.486643 
L 171.900189 579.328209 
L 210.953137 586.327799 
L 250.006085 608.453477 
L 289.059033 665.364384 
L 328.111981 721.576521 
L 367.164929 746.493167 
L 406.217876 754.033161 
L 445.270824 755.975906 
" clip-path="url(#pee83c3d1a0)" style="fill: none; stroke: #510000; stroke-width: 1.5; stroke-linecap: square"/>
   </g>
   <g id="line2d_51">
    <path d="M -1 682.226298 
L 132.847242 682.227455 
L 171.900189 683.876716 
L 210.953137 689.727591 
L 250.006085 704.409027 
L 289.059033 726.175579 
L 328.111981 744.657608 
L 367.164929 753.166546 
L 406.217876 755.735866 
L 445.270824 756.388653 
" clip-path="url(#pee83c3d1a0)" style="fill: none; stroke: #360000; stroke-width: 1.5; stroke-linecap: square"/>
   </g>
   <g id="line2d_52">
    <path d="M -1 736.373475 
L 132.847242 736.373794 
L 171.900189 736.826812 
L 210.953137 738.419421 
L 250.006085 742.35935 
L 289.059033 748.234189 
L 328.111981 753.329632 
L 367.164929 755.669686 
L 406.217876 756.364992 
L 445.270824 756.54014 
" clip-path="url(#pee83c3d1a0)" style="fill: none; stroke: #1b0000; stroke-width: 1.5; stroke-linecap: square"/>
   </g>
   <g id="line2d_53">
    <path d="M -1 751.096273 
L 132.847242 751.096361 
L 171.900189 751.221593 
L 210.953137 751.660705 
L 250.006085 752.741234 
L 289.059033 754.344465 
L 328.111981 755.724294 
L 367.164929 756.35008 
L 406.217876 756.534521 
L 445.270824 756.580853 
" clip-path="url(#pee83c3d1a0)" style="fill: none; stroke: #000000; stroke-width: 1.5; stroke-linecap: square"/>
   </g>
   <g id="patch_9">
    <path d="M 117.226063 772 
L 117.226063 432.778765 
" style="fill: none; stroke: #000000; stroke-width: 0.8; stroke-linejoin: miter; stroke-linecap: square"/>
   </g>
   <g id="patch_10">
    <path d="M 117.226063 772 
L 460.892003 772 
" style="fill: none; stroke: #000000; stroke-width: 0.8; stroke-linejoin: miter; stroke-linecap: square"/>
   </g>
  </g>
  <g id="axes_4">
   <g id="patch_11">
    <path d="M 524.906062 772 
L 868.572003 772 
L 868.572003 432.778765 
L 524.906062 432.778765 
z
" style="fill: #ffffff"/>
   </g>
   <g id="matplotlib.axis_7">
    <g id="xtick_10">
     <g id="line2d_54">
      <g>
       <use xlink:href="#mcfc5381bfc" x="603.011958" y="772" style="stroke: #000000; stroke-width: 0.8"/>
      </g>
     </g>
     <g id="text_21">
      <!-- $\mathdefault{10^{-3}}$ -->
      <g transform="translate(577.161958 795.716563)scale(0.22 -0.22)">
       <use xlink:href="#DejaVuSans-31" transform="translate(0 0.765625)"/>
       <use xlink:href="#DejaVuSans-30" transform="translate(63.623047 0.765625)"/>
       <use xlink:href="#DejaVuSans-2212" transform="translate(128.203125 39.046875)scale(0.7)"/>
       <use xlink:href="#DejaVuSans-33" transform="translate(186.855469 39.046875)scale(0.7)"/>
      </g>
     </g>
    </g>
    <g id="xtick_11">
     <g id="line2d_55">
      <g>
       <use xlink:href="#mcfc5381bfc" x="727.981391" y="772" style="stroke: #000000; stroke-width: 0.8"/>
      </g>
     </g>
     <g id="text_22">
      <!-- $\mathdefault{10^{-1}}$ -->
      <g transform="translate(702.131391 795.716563)scale(0.22 -0.22)">
       <use xlink:href="#DejaVuSans-31" transform="translate(0 0.684375)"/>
       <use xlink:href="#DejaVuSans-30" transform="translate(63.623047 0.684375)"/>
       <use xlink:href="#DejaVuSans-2212" transform="translate(128.203125 38.965625)scale(0.7)"/>
       <use xlink:href="#DejaVuSans-31" transform="translate(186.855469 38.965625)scale(0.7)"/>
      </g>
     </g>
    </g>
    <g id="xtick_12">
     <g id="line2d_56">
      <g>
       <use xlink:href="#mcfc5381bfc" x="852.950824" y="772" style="stroke: #000000; stroke-width: 0.8"/>
      </g>
     </g>
     <g id="text_23">
      <!-- $\mathdefault{10^{1}}$ -->
      <g transform="translate(833.590824 795.716563)scale(0.22 -0.22)">
       <use xlink:href="#DejaVuSans-31" transform="translate(0 0.684375)"/>
       <use xlink:href="#DejaVuSans-30" transform="translate(63.623047 0.684375)"/>
       <use xlink:href="#DejaVuSans-31" transform="translate(128.203125 38.965625)scale(0.7)"/>
      </g>
     </g>
    </g>
    <g id="text_24">
     <!-- Cobimetinib ($\mu$M) -->
     <g transform="translate(601.809033 821.011875)scale(0.22 -0.22)">
      <use xlink:href="#DejaVuSans-43" transform="translate(0 0.015625)"/>
      <use xlink:href="#DejaVuSans-6f" transform="translate(69.824219 0.015625)"/>
      <use xlink:href="#DejaVuSans-62" transform="translate(131.005859 0.015625)"/>
      <use xlink:href="#DejaVuSans-69" transform="translate(194.482422 0.015625)"/>
      <use xlink:href="#DejaVuSans-6d" transform="translate(222.265625 0.015625)"/>
      <use xlink:href="#DejaVuSans-65" transform="translate(319.677734 0.015625)"/>
      <use xlink:href="#DejaVuSans-74" transform="translate(381.201172 0.015625)"/>
      <use xlink:href="#DejaVuSans-69" transform="translate(420.410156 0.015625)"/>
      <use xlink:href="#DejaVuSans-6e" transform="translate(448.193359 0.015625)"/>
      <use xlink:href="#DejaVuSans-69" transform="translate(511.572266 0.015625)"/>
      <use xlink:href="#DejaVuSans-62" transform="translate(539.355469 0.015625)"/>
      <use xlink:href="#DejaVuSans-20" transform="translate(602.832031 0.015625)"/>
      <use xlink:href="#DejaVuSans-28" transform="translate(634.619141 0.015625)"/>
      <use xlink:href="#DejaVuSans-Oblique-3bc" transform="translate(673.632812 0.015625)"/>
      <use xlink:href="#DejaVuSans-4d" transform="translate(737.255859 0.015625)"/>
      <use xlink:href="#DejaVuSans-29" transform="translate(823.535156 0.015625)"/>
     </g>
    </g>
   </g>
   <g id="matplotlib.axis_8">
    <g id="ytick_15">
     <g id="line2d_57">
      <g>
       <use xlink:href="#md0f4f8f31d" x="524.906062" y="756.597482" style="stroke: #000000; stroke-width: 0.8"/>
      </g>
     </g>
     <g id="text_25">
      <!-- 0 -->
      <g transform="translate(503.908562 764.955763)scale(0.22 -0.22)">
       <use xlink:href="#DejaVuSans-30"/>
      </g>
     </g>
    </g>
    <g id="ytick_16">
     <g id="line2d_58">
      <g>
       <use xlink:href="#md0f4f8f31d" x="524.906062" y="707.270866" style="stroke: #000000; stroke-width: 0.8"/>
      </g>
     </g>
     <g id="text_26">
      <!-- 10 -->
      <g transform="translate(489.911062 715.629148)scale(0.22 -0.22)">
       <use xlink:href="#DejaVuSans-31"/>
       <use xlink:href="#DejaVuSans-30" x="63.623047"/>
      </g>
     </g>
    </g>
    <g id="ytick_17">
     <g id="line2d_59">
      <g>
       <use xlink:href="#md0f4f8f31d" x="524.906062" y="657.944251" style="stroke: #000000; stroke-width: 0.8"/>
      </g>
     </g>
     <g id="text_27">
      <!-- 20 -->
      <g transform="translate(489.911062 666.302532)scale(0.22 -0.22)">
       <use xlink:href="#DejaVuSans-32"/>
       <use xlink:href="#DejaVuSans-30" x="63.623047"/>
      </g>
     </g>
    </g>
    <g id="ytick_18">
     <g id="line2d_60">
      <g>
       <use xlink:href="#md0f4f8f31d" x="524.906062" y="608.617635" style="stroke: #000000; stroke-width: 0.8"/>
      </g>
     </g>
     <g id="text_28">
      <!-- 30 -->
      <g transform="translate(489.911062 616.975916)scale(0.22 -0.22)">
       <use xlink:href="#DejaVuSans-33"/>
       <use xlink:href="#DejaVuSans-30" x="63.623047"/>
      </g>
     </g>
    </g>
    <g id="ytick_19">
     <g id="line2d_61">
      <g>
       <use xlink:href="#md0f4f8f31d" x="524.906062" y="559.291019" style="stroke: #000000; stroke-width: 0.8"/>
      </g>
     </g>
     <g id="text_29">
      <!-- 40 -->
      <g transform="translate(489.911062 567.6493)scale(0.22 -0.22)">
       <use xlink:href="#DejaVuSans-34"/>
       <use xlink:href="#DejaVuSans-30" x="63.623047"/>
      </g>
     </g>
    </g>
    <g id="ytick_20">
     <g id="line2d_62">
      <g>
       <use xlink:href="#md0f4f8f31d" x="524.906062" y="509.964403" style="stroke: #000000; stroke-width: 0.8"/>
      </g>
     </g>
     <g id="text_30">
      <!-- 50 -->
      <g transform="translate(489.911062 518.322685)scale(0.22 -0.22)">
       <defs>
        <path id="DejaVuSans-35" d="M 691 4666 
L 3169 4666 
L 3169 4134 
L 1269 4134 
L 1269 2991 
Q 1406 3038 1543 3061 
Q 1681 3084 1819 3084 
Q 2600 3084 3056 2656 
Q 3513 2228 3513 1497 
Q 3513 744 3044 326 
Q 2575 -91 1722 -91 
Q 1428 -91 1123 -41 
Q 819 9 494 109 
L 494 744 
Q 775 591 1075 516 
Q 1375 441 1709 441 
Q 2250 441 2565 725 
Q 2881 1009 2881 1497 
Q 2881 1984 2565 2268 
Q 2250 2553 1709 2553 
Q 1456 2553 1204 2497 
Q 953 2441 691 2322 
L 691 4666 
z
" transform="scale(0.015625)"/>
       </defs>
       <use xlink:href="#DejaVuSans-35"/>
       <use xlink:href="#DejaVuSans-30" x="63.623047"/>
      </g>
     </g>
    </g>
    <g id="ytick_21">
     <g id="line2d_63">
      <g>
       <use xlink:href="#md0f4f8f31d" x="524.906062" y="460.637788" style="stroke: #000000; stroke-width: 0.8"/>
      </g>
     </g>
     <g id="text_31">
      <!-- 60 -->
      <g transform="translate(489.911062 468.996069)scale(0.22 -0.22)">
       <use xlink:href="#DejaVuSans-36"/>
       <use xlink:href="#DejaVuSans-30" x="63.623047"/>
      </g>
     </g>
    </g>
   </g>
   <g id="line2d_64">
    <path d="M -1 495.625064 
L 540.527242 495.629626 
L 579.580189 497.275871 
L 618.633137 503.625134 
L 657.686085 523.716164 
L 696.739033 568.82854 
L 735.791981 653.53663 
L 774.844929 722.615067 
L 813.897876 747.487919 
L 852.950824 754.34308 
" clip-path="url(#pc30cfe6e66)" style="fill: none; stroke: #ff0000; stroke-width: 1.5; stroke-linecap: square"/>
   </g>
   <g id="line2d_65">
    <path d="M -1 473.994666 
L 540.527242 473.999932 
L 579.580189 475.906089 
L 618.633137 483.316146 
L 657.686085 507.158392 
L 696.739033 560.280783 
L 735.791981 656.195303 
L 774.844929 725.952298 
L 813.897876 748.580356 
L 852.950824 754.628862 
" clip-path="url(#pc30cfe6e66)" style="fill: none; stroke: #e40000; stroke-width: 1.5; stroke-linecap: square"/>
   </g>
   <g id="line2d_66">
    <path d="M -1 457.974261 
L 540.527242 457.97994 
L 579.580189 460.038816 
L 618.633137 468.09844 
L 657.686085 494.386941 
L 696.739033 552.874193 
L 735.791981 654.799448 
L 774.844929 726.6023 
L 813.897876 748.833664 
L 852.950824 754.697106 
" clip-path="url(#pc30cfe6e66)" style="fill: none; stroke: #c90000; stroke-width: 1.5; stroke-linecap: square"/>
   </g>
   <g id="line2d_67">
    <path d="M -1 448.872178 
L 540.527242 448.878096 
L 579.580189 451.025489 
L 618.633137 459.46261 
L 657.686085 487.218352 
L 696.739033 548.975983 
L 735.791981 654.380039 
L 774.844929 727.08034 
L 813.897876 749.003317 
L 852.950824 754.742046 
" clip-path="url(#pc30cfe6e66)" style="fill: none; stroke: #ae0000; stroke-width: 1.5; stroke-linecap: square"/>
   </g>
   <g id="line2d_68">
    <path d="M -1 453.495782 
L 540.527242 453.501821 
L 579.580189 455.691578 
L 618.633137 464.276871 
L 657.686085 492.326841 
L 696.739033 554.080875 
L 735.791981 660.302478 
L 774.844929 728.985425 
L 813.897876 749.51294 
L 852.950824 754.869108 
" clip-path="url(#pc30cfe6e66)" style="fill: none; stroke: #940000; stroke-width: 1.5; stroke-linecap: square"/>
   </g>
   <g id="line2d_69">
    <path d="M -1 485.540953 
L 540.527242 485.546997 
L 579.580189 487.730078 
L 618.633137 496.167364 
L 657.686085 522.725143 
L 696.739033 580.326421 
L 735.791981 681.510467 
L 774.844929 734.962841 
L 813.897876 751.058165 
L 852.950824 755.249908 
" clip-path="url(#pc30cfe6e66)" style="fill: none; stroke: #6b0000; stroke-width: 1.5; stroke-linecap: square"/>
   </g>
   <g id="line2d_70">
    <path d="M -1 558.704238 
L 540.527242 558.709887 
L 579.580189 560.739348 
L 618.633137 568.470468 
L 657.686085 593.302897 
L 696.739033 655.674892 
L 735.791981 717.165135 
L 774.844929 745.14146 
L 813.897876 753.686411 
L 852.950824 755.893261 
" clip-path="url(#pc30cfe6e66)" style="fill: none; stroke: #510000; stroke-width: 1.5; stroke-linecap: square"/>
   </g>
   <g id="line2d_71">
    <path d="M -1 674.242733 
L 540.527242 674.247779 
L 579.580189 676.026119 
L 618.633137 682.349223 
L 657.686085 698.328203 
L 696.739033 722.354939 
L 735.791981 743.074657 
L 774.844929 752.703286 
L 813.897876 755.620521 
L 852.950824 756.362377 
" clip-path="url(#pc30cfe6e66)" style="fill: none; stroke: #360000; stroke-width: 1.5; stroke-linecap: square"/>
   </g>
   <g id="line2d_72">
    <path d="M -1 733.760763 
L 540.527242 733.762209 
L 579.580189 734.270189 
L 618.633137 736.057361 
L 657.686085 740.4876 
L 696.739033 747.117017 
L 735.791981 752.888543 
L 774.844929 755.545343 
L 813.897876 756.335485 
L 852.950824 756.534572 
" clip-path="url(#pc30cfe6e66)" style="fill: none; stroke: #1b0000; stroke-width: 1.5; stroke-linecap: square"/>
   </g>
   <g id="line2d_73">
    <path d="M -1 750.356333 
L 540.527242 750.356737 
L 579.580189 750.498615 
L 618.633137 750.996189 
L 657.686085 752.221176 
L 696.739033 754.040302 
L 735.791981 755.60739 
L 774.844929 756.318536 
L 813.897876 756.528185 
L 852.950824 756.580853 
" clip-path="url(#pc30cfe6e66)" style="fill: none; stroke: #000000; stroke-width: 1.5; stroke-linecap: square"/>
   </g>
   <g id="patch_12">
    <path d="M 524.906062 772 
L 524.906062 432.778765 
" style="fill: none; stroke: #000000; stroke-width: 0.8; stroke-linejoin: miter; stroke-linecap: square"/>
   </g>
   <g id="patch_13">
    <path d="M 524.906062 772 
L 868.572003 772 
" style="fill: none; stroke: #000000; stroke-width: 0.8; stroke-linejoin: miter; stroke-linecap: square"/>
   </g>
  </g>
  <g id="text_32">
   <!-- Simulations of Belvarafenib and Cobimetinib effects on MAPK activity -->
   <g transform="translate(7.2 27.259875)scale(0.264 -0.264)">
    <defs>
     <path id="DejaVuSans-53" d="M 3425 4513 
L 3425 3897 
Q 3066 4069 2747 4153 
Q 2428 4238 2131 4238 
Q 1616 4238 1336 4038 
Q 1056 3838 1056 3469 
Q 1056 3159 1242 3001 
Q 1428 2844 1947 2747 
L 2328 2669 
Q 3034 2534 3370 2195 
Q 3706 1856 3706 1288 
Q 3706 609 3251 259 
Q 2797 -91 1919 -91 
Q 1588 -91 1214 -16 
Q 841 59 441 206 
L 441 856 
Q 825 641 1194 531 
Q 1563 422 1919 422 
Q 2459 422 2753 634 
Q 3047 847 3047 1241 
Q 3047 1584 2836 1778 
Q 2625 1972 2144 2069 
L 1759 2144 
Q 1053 2284 737 2584 
Q 422 2884 422 3419 
Q 422 4038 858 4394 
Q 1294 4750 2059 4750 
Q 2388 4750 2728 4690 
Q 3069 4631 3425 4513 
z
" transform="scale(0.015625)"/>
     <path id="DejaVuSans-75" d="M 544 1381 
L 544 3500 
L 1119 3500 
L 1119 1403 
Q 1119 906 1312 657 
Q 1506 409 1894 409 
Q 2359 409 2629 706 
Q 2900 1003 2900 1516 
L 2900 3500 
L 3475 3500 
L 3475 0 
L 2900 0 
L 2900 538 
Q 2691 219 2414 64 
Q 2138 -91 1772 -91 
Q 1169 -91 856 284 
Q 544 659 544 1381 
z
M 1991 3584 
L 1991 3584 
z
" transform="scale(0.015625)"/>
     <path id="DejaVuSans-6c" d="M 603 4863 
L 1178 4863 
L 1178 0 
L 603 0 
L 603 4863 
z
" transform="scale(0.015625)"/>
     <path id="DejaVuSans-61" d="M 2194 1759 
Q 1497 1759 1228 1600 
Q 959 1441 959 1056 
Q 959 750 1161 570 
Q 1363 391 1709 391 
Q 2188 391 2477 730 
Q 2766 1069 2766 1631 
L 2766 1759 
L 2194 1759 
z
M 3341 1997 
L 3341 0 
L 2766 0 
L 2766 531 
Q 2569 213 2275 61 
Q 1981 -91 1556 -91 
Q 1019 -91 701 211 
Q 384 513 384 1019 
Q 384 1609 779 1909 
Q 1175 2209 1959 2209 
L 2766 2209 
L 2766 2266 
Q 2766 2663 2505 2880 
Q 2244 3097 1772 3097 
Q 1472 3097 1187 3025 
Q 903 2953 641 2809 
L 641 3341 
Q 956 3463 1253 3523 
Q 1550 3584 1831 3584 
Q 2591 3584 2966 3190 
Q 3341 2797 3341 1997 
z
" transform="scale(0.015625)"/>
     <path id="DejaVuSans-73" d="M 2834 3397 
L 2834 2853 
Q 2591 2978 2328 3040 
Q 2066 3103 1784 3103 
Q 1356 3103 1142 2972 
Q 928 2841 928 2578 
Q 928 2378 1081 2264 
Q 1234 2150 1697 2047 
L 1894 2003 
Q 2506 1872 2764 1633 
Q 3022 1394 3022 966 
Q 3022 478 2636 193 
Q 2250 -91 1575 -91 
Q 1294 -91 989 -36 
Q 684 19 347 128 
L 347 722 
Q 666 556 975 473 
Q 1284 391 1588 391 
Q 1994 391 2212 530 
Q 2431 669 2431 922 
Q 2431 1156 2273 1281 
Q 2116 1406 1581 1522 
L 1381 1569 
Q 847 1681 609 1914 
Q 372 2147 372 2553 
Q 372 3047 722 3315 
Q 1072 3584 1716 3584 
Q 2034 3584 2315 3537 
Q 2597 3491 2834 3397 
z
" transform="scale(0.015625)"/>
     <path id="DejaVuSans-66" d="M 2375 4863 
L 2375 4384 
L 1825 4384 
Q 1516 4384 1395 4259 
Q 1275 4134 1275 3809 
L 1275 3500 
L 2222 3500 
L 2222 3053 
L 1275 3053 
L 1275 0 
L 697 0 
L 697 3053 
L 147 3053 
L 147 3500 
L 697 3500 
L 697 3744 
Q 697 4328 969 4595 
Q 1241 4863 1831 4863 
L 2375 4863 
z
" transform="scale(0.015625)"/>
     <path id="DejaVuSans-42" d="M 1259 2228 
L 1259 519 
L 2272 519 
Q 2781 519 3026 730 
Q 3272 941 3272 1375 
Q 3272 1813 3026 2020 
Q 2781 2228 2272 2228 
L 1259 2228 
z
M 1259 4147 
L 1259 2741 
L 2194 2741 
Q 2656 2741 2882 2914 
Q 3109 3088 3109 3444 
Q 3109 3797 2882 3972 
Q 2656 4147 2194 4147 
L 1259 4147 
z
M 628 4666 
L 2241 4666 
Q 2963 4666 3353 4366 
Q 3744 4066 3744 3513 
Q 3744 3084 3544 2831 
Q 3344 2578 2956 2516 
Q 3422 2416 3680 2098 
Q 3938 1781 3938 1306 
Q 3938 681 3513 340 
Q 3088 0 2303 0 
L 628 0 
L 628 4666 
z
" transform="scale(0.015625)"/>
     <path id="DejaVuSans-76" d="M 191 3500 
L 800 3500 
L 1894 563 
L 2988 3500 
L 3597 3500 
L 2284 0 
L 1503 0 
L 191 3500 
z
" transform="scale(0.015625)"/>
     <path id="DejaVuSans-72" d="M 2631 2963 
Q 2534 3019 2420 3045 
Q 2306 3072 2169 3072 
Q 1681 3072 1420 2755 
Q 1159 2438 1159 1844 
L 1159 0 
L 581 0 
L 581 3500 
L 1159 3500 
L 1159 2956 
Q 1341 3275 1631 3429 
Q 1922 3584 2338 3584 
Q 2397 3584 2469 3576 
Q 2541 3569 2628 3553 
L 2631 2963 
z
" transform="scale(0.015625)"/>
     <path id="DejaVuSans-64" d="M 2906 2969 
L 2906 4863 
L 3481 4863 
L 3481 0 
L 2906 0 
L 2906 525 
Q 2725 213 2448 61 
Q 2172 -91 1784 -91 
Q 1150 -91 751 415 
Q 353 922 353 1747 
Q 353 2572 751 3078 
Q 1150 3584 1784 3584 
Q 2172 3584 2448 3432 
Q 2725 3281 2906 2969 
z
M 947 1747 
Q 947 1113 1208 752 
Q 1469 391 1925 391 
Q 2381 391 2643 752 
Q 2906 1113 2906 1747 
Q 2906 2381 2643 2742 
Q 2381 3103 1925 3103 
Q 1469 3103 1208 2742 
Q 947 2381 947 1747 
z
" transform="scale(0.015625)"/>
     <path id="DejaVuSans-63" d="M 3122 3366 
L 3122 2828 
Q 2878 2963 2633 3030 
Q 2388 3097 2138 3097 
Q 1578 3097 1268 2742 
Q 959 2388 959 1747 
Q 959 1106 1268 751 
Q 1578 397 2138 397 
Q 2388 397 2633 464 
Q 2878 531 3122 666 
L 3122 134 
Q 2881 22 2623 -34 
Q 2366 -91 2075 -91 
Q 1284 -91 818 406 
Q 353 903 353 1747 
Q 353 2603 823 3093 
Q 1294 3584 2113 3584 
Q 2378 3584 2631 3529 
Q 2884 3475 3122 3366 
z
" transform="scale(0.015625)"/>
     <path id="DejaVuSans-41" d="M 2188 4044 
L 1331 1722 
L 3047 1722 
L 2188 4044 
z
M 1831 4666 
L 2547 4666 
L 4325 0 
L 3669 0 
L 3244 1197 
L 1141 1197 
L 716 0 
L 50 0 
L 1831 4666 
z
" transform="scale(0.015625)"/>
     <path id="DejaVuSans-50" d="M 1259 4147 
L 1259 2394 
L 2053 2394 
Q 2494 2394 2734 2622 
Q 2975 2850 2975 3272 
Q 2975 3691 2734 3919 
Q 2494 4147 2053 4147 
L 1259 4147 
z
M 628 4666 
L 2053 4666 
Q 2838 4666 3239 4311 
Q 3641 3956 3641 3272 
Q 3641 2581 3239 2228 
Q 2838 1875 2053 1875 
L 1259 1875 
L 1259 0 
L 628 0 
L 628 4666 
z
" transform="scale(0.015625)"/>
     <path id="DejaVuSans-79" d="M 2059 -325 
Q 1816 -950 1584 -1140 
Q 1353 -1331 966 -1331 
L 506 -1331 
L 506 -850 
L 844 -850 
Q 1081 -850 1212 -737 
Q 1344 -625 1503 -206 
L 1606 56 
L 191 3500 
L 800 3500 
L 1894 763 
L 2988 3500 
L 3597 3500 
L 2059 -325 
z
" transform="scale(0.015625)"/>
    </defs>
    <use xlink:href="#DejaVuSans-53"/>
    <use xlink:href="#DejaVuSans-69" x="63.476562"/>
    <use xlink:href="#DejaVuSans-6d" x="91.259766"/>
    <use xlink:href="#DejaVuSans-75" x="188.671875"/>
    <use xlink:href="#DejaVuSans-6c" x="252.050781"/>
    <use xlink:href="#DejaVuSans-61" x="279.833984"/>
    <use xlink:href="#DejaVuSans-74" x="341.113281"/>
    <use xlink:href="#DejaVuSans-69" x="380.322266"/>
    <use xlink:href="#DejaVuSans-6f" x="408.105469"/>
    <use xlink:href="#DejaVuSans-6e" x="469.287109"/>
    <use xlink:href="#DejaVuSans-73" x="532.666016"/>
    <use xlink:href="#DejaVuSans-20" x="584.765625"/>
    <use xlink:href="#DejaVuSans-6f" x="616.552734"/>
    <use xlink:href="#DejaVuSans-66" x="677.734375"/>
    <use xlink:href="#DejaVuSans-20" x="712.939453"/>
    <use xlink:href="#DejaVuSans-42" x="744.726562"/>
    <use xlink:href="#DejaVuSans-65" x="813.330078"/>
    <use xlink:href="#DejaVuSans-6c" x="874.853516"/>
    <use xlink:href="#DejaVuSans-76" x="902.636719"/>
    <use xlink:href="#DejaVuSans-61" x="961.816406"/>
    <use xlink:href="#DejaVuSans-72" x="1023.095703"/>
    <use xlink:href="#DejaVuSans-61" x="1064.208984"/>
    <use xlink:href="#DejaVuSans-66" x="1125.488281"/>
    <use xlink:href="#DejaVuSans-65" x="1160.693359"/>
    <use xlink:href="#DejaVuSans-6e" x="1222.216797"/>
    <use xlink:href="#DejaVuSans-69" x="1285.595703"/>
    <use xlink:href="#DejaVuSans-62" x="1313.378906"/>
    <use xlink:href="#DejaVuSans-20" x="1376.855469"/>
    <use xlink:href="#DejaVuSans-61" x="1408.642578"/>
    <use xlink:href="#DejaVuSans-6e" x="1469.921875"/>
    <use xlink:href="#DejaVuSans-64" x="1533.300781"/>
    <use xlink:href="#DejaVuSans-20" x="1596.777344"/>
    <use xlink:href="#DejaVuSans-43" x="1628.564453"/>
    <use xlink:href="#DejaVuSans-6f" x="1698.388672"/>
    <use xlink:href="#DejaVuSans-62" x="1759.570312"/>
    <use xlink:href="#DejaVuSans-69" x="1823.046875"/>
    <use xlink:href="#DejaVuSans-6d" x="1850.830078"/>
    <use xlink:href="#DejaVuSans-65" x="1948.242188"/>
    <use xlink:href="#DejaVuSans-74" x="2009.765625"/>
    <use xlink:href="#DejaVuSans-69" x="2048.974609"/>
    <use xlink:href="#DejaVuSans-6e" x="2076.757812"/>
    <use xlink:href="#DejaVuSans-69" x="2140.136719"/>
    <use xlink:href="#DejaVuSans-62" x="2167.919922"/>
    <use xlink:href="#DejaVuSans-20" x="2231.396484"/>
    <use xlink:href="#DejaVuSans-65" x="2263.183594"/>
    <use xlink:href="#DejaVuSans-66" x="2324.707031"/>
    <use xlink:href="#DejaVuSans-66" x="2359.912109"/>
    <use xlink:href="#DejaVuSans-65" x="2395.117188"/>
    <use xlink:href="#DejaVuSans-63" x="2456.640625"/>
    <use xlink:href="#DejaVuSans-74" x="2511.621094"/>
    <use xlink:href="#DejaVuSans-73" x="2550.830078"/>
    <use xlink:href="#DejaVuSans-20" x="2602.929688"/>
    <use xlink:href="#DejaVuSans-6f" x="2634.716797"/>
    <use xlink:href="#DejaVuSans-6e" x="2695.898438"/>
    <use xlink:href="#DejaVuSans-20" x="2759.277344"/>
    <use xlink:href="#DejaVuSans-4d" x="2791.064453"/>
    <use xlink:href="#DejaVuSans-41" x="2877.34375"/>
    <use xlink:href="#DejaVuSans-50" x="2945.751953"/>
    <use xlink:href="#DejaVuSans-4b" x="3006.054688"/>
    <use xlink:href="#DejaVuSans-20" x="3071.630859"/>
    <use xlink:href="#DejaVuSans-61" x="3103.417969"/>
    <use xlink:href="#DejaVuSans-63" x="3164.697266"/>
    <use xlink:href="#DejaVuSans-74" x="3219.677734"/>
    <use xlink:href="#DejaVuSans-69" x="3258.886719"/>
    <use xlink:href="#DejaVuSans-76" x="3286.669922"/>
    <use xlink:href="#DejaVuSans-69" x="3345.849609"/>
    <use xlink:href="#DejaVuSans-74" x="3373.632812"/>
    <use xlink:href="#DejaVuSans-79" x="3412.841797"/>
   </g>
  </g>
  <g id="legend_1">
   <g id="patch_14">
    <path d="M 912.906062 646.614625 
L 1060.780437 646.614625 
Q 1065.180437 646.614625 1065.180437 642.214625 
L 1065.180437 264.52 
Q 1065.180437 260.12 1060.780437 260.12 
L 912.906062 260.12 
Q 908.506062 260.12 908.506062 264.52 
L 908.506062 642.214625 
Q 908.506062 646.614625 912.906062 646.614625 
z
" style="fill: #ffffff; opacity: 0.8; stroke: #cccccc; stroke-linejoin: miter"/>
   </g>
   <g id="text_33">
    <!-- Belvarafenib -->
    <g transform="translate(917.306062 285.636562)scale(0.22 -0.22)">
     <use xlink:href="#DejaVuSans-42"/>
     <use xlink:href="#DejaVuSans-65" x="68.603516"/>
     <use xlink:href="#DejaVuSans-6c" x="130.126953"/>
     <use xlink:href="#DejaVuSans-76" x="157.910156"/>
     <use xlink:href="#DejaVuSans-61" x="217.089844"/>
     <use xlink:href="#DejaVuSans-72" x="278.369141"/>
     <use xlink:href="#DejaVuSans-61" x="319.482422"/>
     <use xlink:href="#DejaVuSans-66" x="380.761719"/>
     <use xlink:href="#DejaVuSans-65" x="415.966797"/>
     <use xlink:href="#DejaVuSans-6e" x="477.490234"/>
     <use xlink:href="#DejaVuSans-69" x="540.869141"/>
     <use xlink:href="#DejaVuSans-62" x="568.652344"/>
    </g>
    <!-- (log $\mu$M) -->
    <g transform="translate(941.41325 310.275875)scale(0.22 -0.22)">
     <defs>
      <path id="DejaVuSans-67" d="M 2906 1791 
Q 2906 2416 2648 2759 
Q 2391 3103 1925 3103 
Q 1463 3103 1205 2759 
Q 947 2416 947 1791 
Q 947 1169 1205 825 
Q 1463 481 1925 481 
Q 2391 481 2648 825 
Q 2906 1169 2906 1791 
z
M 3481 434 
Q 3481 -459 3084 -895 
Q 2688 -1331 1869 -1331 
Q 1566 -1331 1297 -1286 
Q 1028 -1241 775 -1147 
L 775 -588 
Q 1028 -725 1275 -790 
Q 1522 -856 1778 -856 
Q 2344 -856 2625 -561 
Q 2906 -266 2906 331 
L 2906 616 
Q 2728 306 2450 153 
Q 2172 0 1784 0 
Q 1141 0 747 490 
Q 353 981 353 1791 
Q 353 2603 747 3093 
Q 1141 3584 1784 3584 
Q 2172 3584 2450 3431 
Q 2728 3278 2906 2969 
L 2906 3500 
L 3481 3500 
L 3481 434 
z
" transform="scale(0.015625)"/>
     </defs>
     <use xlink:href="#DejaVuSans-28" transform="translate(0 0.015625)"/>
     <use xlink:href="#DejaVuSans-6c" transform="translate(39.013672 0.015625)"/>
     <use xlink:href="#DejaVuSans-6f" transform="translate(66.796875 0.015625)"/>
     <use xlink:href="#DejaVuSans-67" transform="translate(127.978516 0.015625)"/>
     <use xlink:href="#DejaVuSans-20" transform="translate(191.455078 0.015625)"/>
     <use xlink:href="#DejaVuSans-Oblique-3bc" transform="translate(223.242188 0.015625)"/>
     <use xlink:href="#DejaVuSans-4d" transform="translate(286.865234 0.015625)"/>
     <use xlink:href="#DejaVuSans-29" transform="translate(373.144531 0.015625)"/>
    </g>
   </g>
   <g id="line2d_74">
    <path d="M 927.582469 334.912437 
L 949.582469 334.912437 
L 971.582469 334.912437 
" style="fill: none; stroke: #ff0000; stroke-width: 1.5; stroke-linecap: square"/>
   </g>
   <g id="text_34">
    <!-- -inf -->
    <g transform="translate(989.182469 342.612437)scale(0.22 -0.22)">
     <defs>
      <path id="DejaVuSans-2d" d="M 313 2009 
L 1997 2009 
L 1997 1497 
L 313 1497 
L 313 2009 
z
" transform="scale(0.015625)"/>
     </defs>
     <use xlink:href="#DejaVuSans-2d"/>
     <use xlink:href="#DejaVuSans-69" x="36.083984"/>
     <use xlink:href="#DejaVuSans-6e" x="63.867188"/>
     <use xlink:href="#DejaVuSans-66" x="127.246094"/>
    </g>
   </g>
   <g id="line2d_75">
    <path d="M 927.582469 367.204312 
L 949.582469 367.204312 
L 971.582469 367.204312 
" style="fill: none; stroke: #e40000; stroke-width: 1.5; stroke-linecap: square"/>
   </g>
   <g id="text_35">
    <!-- -4.0 -->
    <g transform="translate(989.182469 374.904312)scale(0.22 -0.22)">
     <defs>
      <path id="DejaVuSans-2e" d="M 684 794 
L 1344 794 
L 1344 0 
L 684 0 
L 684 794 
z
" transform="scale(0.015625)"/>
     </defs>
     <use xlink:href="#DejaVuSans-2d"/>
     <use xlink:href="#DejaVuSans-34" x="36.083984"/>
     <use xlink:href="#DejaVuSans-2e" x="99.707031"/>
     <use xlink:href="#DejaVuSans-30" x="131.494141"/>
    </g>
   </g>
   <g id="line2d_76">
    <path d="M 927.582469 399.496187 
L 949.582469 399.496187 
L 971.582469 399.496187 
" style="fill: none; stroke: #c90000; stroke-width: 1.5; stroke-linecap: square"/>
   </g>
   <g id="text_36">
    <!-- -3.38 -->
    <g transform="translate(989.182469 407.196187)scale(0.22 -0.22)">
     <use xlink:href="#DejaVuSans-2d"/>
     <use xlink:href="#DejaVuSans-33" x="36.083984"/>
     <use xlink:href="#DejaVuSans-2e" x="99.707031"/>
     <use xlink:href="#DejaVuSans-33" x="131.494141"/>
     <use xlink:href="#DejaVuSans-38" x="195.117188"/>
    </g>
   </g>
   <g id="line2d_77">
    <path d="M 927.582469 431.788062 
L 949.582469 431.788062 
L 971.582469 431.788062 
" style="fill: none; stroke: #ae0000; stroke-width: 1.5; stroke-linecap: square"/>
   </g>
   <g id="text_37">
    <!-- -2.75 -->
    <g transform="translate(989.182469 439.488062)scale(0.22 -0.22)">
     <defs>
      <path id="DejaVuSans-37" d="M 525 4666 
L 3525 4666 
L 3525 4397 
L 1831 0 
L 1172 0 
L 2766 4134 
L 525 4134 
L 525 4666 
z
" transform="scale(0.015625)"/>
     </defs>
     <use xlink:href="#DejaVuSans-2d"/>
     <use xlink:href="#DejaVuSans-32" x="36.083984"/>
     <use xlink:href="#DejaVuSans-2e" x="99.707031"/>
     <use xlink:href="#DejaVuSans-37" x="131.494141"/>
     <use xlink:href="#DejaVuSans-35" x="195.117188"/>
    </g>
   </g>
   <g id="line2d_78">
    <path d="M 927.582469 464.079937 
L 949.582469 464.079937 
L 971.582469 464.079937 
" style="fill: none; stroke: #940000; stroke-width: 1.5; stroke-linecap: square"/>
   </g>
   <g id="text_38">
    <!-- -2.13 -->
    <g transform="translate(989.182469 471.779937)scale(0.22 -0.22)">
     <use xlink:href="#DejaVuSans-2d"/>
     <use xlink:href="#DejaVuSans-32" x="36.083984"/>
     <use xlink:href="#DejaVuSans-2e" x="99.707031"/>
     <use xlink:href="#DejaVuSans-31" x="131.494141"/>
     <use xlink:href="#DejaVuSans-33" x="195.117188"/>
    </g>
   </g>
   <g id="line2d_79">
    <path d="M 927.582469 496.371812 
L 949.582469 496.371812 
L 971.582469 496.371812 
" style="fill: none; stroke: #6b0000; stroke-width: 1.5; stroke-linecap: square"/>
   </g>
   <g id="text_39">
    <!-- -1.5 -->
    <g transform="translate(989.182469 504.071812)scale(0.22 -0.22)">
     <use xlink:href="#DejaVuSans-2d"/>
     <use xlink:href="#DejaVuSans-31" x="36.083984"/>
     <use xlink:href="#DejaVuSans-2e" x="99.707031"/>
     <use xlink:href="#DejaVuSans-35" x="131.494141"/>
    </g>
   </g>
   <g id="line2d_80">
    <path d="M 927.582469 528.663687 
L 949.582469 528.663687 
L 971.582469 528.663687 
" style="fill: none; stroke: #510000; stroke-width: 1.5; stroke-linecap: square"/>
   </g>
   <g id="text_40">
    <!-- -0.88 -->
    <g transform="translate(989.182469 536.363687)scale(0.22 -0.22)">
     <use xlink:href="#DejaVuSans-2d"/>
     <use xlink:href="#DejaVuSans-30" x="36.083984"/>
     <use xlink:href="#DejaVuSans-2e" x="99.707031"/>
     <use xlink:href="#DejaVuSans-38" x="131.494141"/>
     <use xlink:href="#DejaVuSans-38" x="195.117188"/>
    </g>
   </g>
   <g id="line2d_81">
    <path d="M 927.582469 560.955562 
L 949.582469 560.955562 
L 971.582469 560.955562 
" style="fill: none; stroke: #360000; stroke-width: 1.5; stroke-linecap: square"/>
   </g>
   <g id="text_41">
    <!-- -0.25 -->
    <g transform="translate(989.182469 568.655562)scale(0.22 -0.22)">
     <use xlink:href="#DejaVuSans-2d"/>
     <use xlink:href="#DejaVuSans-30" x="36.083984"/>
     <use xlink:href="#DejaVuSans-2e" x="99.707031"/>
     <use xlink:href="#DejaVuSans-32" x="131.494141"/>
     <use xlink:href="#DejaVuSans-35" x="195.117188"/>
    </g>
   </g>
   <g id="line2d_82">
    <path d="M 927.582469 593.247437 
L 949.582469 593.247437 
L 971.582469 593.247437 
" style="fill: none; stroke: #1b0000; stroke-width: 1.5; stroke-linecap: square"/>
   </g>
   <g id="text_42">
    <!-- 0.37 -->
    <g transform="translate(989.182469 600.947437)scale(0.22 -0.22)">
     <use xlink:href="#DejaVuSans-30"/>
     <use xlink:href="#DejaVuSans-2e" x="63.623047"/>
     <use xlink:href="#DejaVuSans-33" x="95.410156"/>
     <use xlink:href="#DejaVuSans-37" x="159.033203"/>
    </g>
   </g>
   <g id="line2d_83">
    <path d="M 927.582469 625.539312 
L 949.582469 625.539312 
L 971.582469 625.539312 
" style="fill: none; stroke: #000000; stroke-width: 1.5; stroke-linecap: square"/>
   </g>
   <g id="text_43">
    <!-- 1.0 -->
    <g transform="translate(989.182469 633.239312)scale(0.22 -0.22)">
     <use xlink:href="#DejaVuSans-31"/>
     <use xlink:href="#DejaVuSans-2e" x="63.623047"/>
     <use xlink:href="#DejaVuSans-30" x="95.410156"/>
    </g>
   </g>
  </g>
 </g>
 <defs>
  <clipPath id="pbd28972a6a">
   <rect x="117.226063" y="66.297531" width="343.665941" height="339.221235"/>
  </clipPath>
  <clipPath id="p77ef8ddf9b">
   <rect x="524.906062" y="66.297531" width="343.665941" height="339.221235"/>
  </clipPath>
  <clipPath id="pee83c3d1a0">
   <rect x="117.226063" y="432.778765" width="343.665941" height="339.221235"/>
  </clipPath>
  <clipPath id="pc30cfe6e66">
   <rect x="524.906062" y="432.778765" width="343.665941" height="339.221235"/>
  </clipPath>
 </defs>
</svg>
